<?xml version="1.0" encoding="UTF-8" standalone="no"?>
<!DOCTYPE svg PUBLIC "-//W3C//DTD SVG 1.1//EN" "http://www.w3.org/Graphics/SVG/1.1/DTD/svg11.dtd">
<!-- Created with Vectornator (http://vectornator.io/) -->
<svg height="100%" stroke-miterlimit="10" style="fill-rule:nonzero;clip-rule:evenodd;stroke-linecap:round;stroke-linejoin:round;" version="1.1" viewBox="0 0 1152 800" width="100%" xml:space="preserve" xmlns="http://www.w3.org/2000/svg" xmlns:vectornator="http://vectornator.io" xmlns:xlink="http://www.w3.org/1999/xlink">
<defs/>
<g id="Layer-1" vectornator:layerName="Layer 1">
<path d="M322.266 607.449C320.426 605.903 317.706 604.849 314.106 604.289C306.16 602.823 297.24 602.543 287.346 603.449C280.573 604.063 271.68 605.476 260.666 607.689C254.693 608.969 247.586 610.556 239.346 612.449L230.226 608.849C226.146 607.249 222.746 605.876 220.026 604.729C209.306 600.036 200.2 595.183 192.706 590.169C192.36 589.876 192 589.583 191.626 589.289C187.813 586.249 185.173 583.863 183.706 582.129C183.173 581.409 182.36 580.329 181.266 578.889C180.28 577.716 179.32 576.809 178.386 576.169C177.293 575.289 176.08 574.769 174.746 574.609C173.253 574.449 172.026 574.783 171.066 575.609C168.826 577.503 168.906 580.996 171.306 586.089C171.786 586.996 172.48 588.356 173.386 590.169C173.573 591.289 174.013 592.369 174.706 593.409C174.973 593.809 175.293 594.209 175.666 594.609C176.68 596.663 177.866 599.036 179.226 601.729C180.773 604.663 181.986 606.649 182.866 607.689C184.493 609.529 187.133 611.489 190.786 613.569C195.4 616.103 200.04 618.503 204.706 620.769C198.573 622.316 195 623.236 193.986 623.529C189.8 624.676 186.146 625.836 183.026 627.009C181.56 627.516 180.226 628.076 179.026 628.689C166.76 630.876 154.72 633.036 142.906 635.169C143.04 632.556 142.053 629.996 139.946 627.489C138.453 625.676 136.213 623.756 133.226 621.729C127.386 617.623 122.906 616.716 119.786 619.009C118.373 620.049 117.506 621.569 117.186 623.569C116.92 625.409 117.146 627.236 117.866 629.049C118.373 630.463 119.253 632.063 120.506 633.849C121.973 635.823 123.04 637.303 123.706 638.289C125.973 642.183 127.733 645.023 128.986 646.809C131.173 649.929 133.546 651.943 136.106 652.849C137.92 653.463 140.013 653.636 142.386 653.369C143.853 653.209 145.933 652.769 148.626 652.049C166.76 647.276 183.933 643.423 200.146 640.489C204.786 639.556 212.226 638.236 222.466 636.529C227.506 635.649 232.346 634.809 236.986 634.009C240.453 635.183 244.813 636.569 250.066 638.169C254.386 639.423 257.866 640.423 260.506 641.169C261.573 641.863 262.72 642.583 263.946 643.329C270.026 647.409 275.106 650.449 279.186 652.449C280.973 653.383 283.106 654.316 285.586 655.249C288.253 656.636 290.466 657.476 292.226 657.769C292.786 657.823 293.346 657.836 293.906 657.809C294.36 657.889 294.786 657.943 295.186 657.969C297.133 658.103 298.826 657.809 300.266 657.089C300.56 656.929 300.84 656.769 301.106 656.609C303.8 657.463 307.506 658.609 312.226 660.049C314.2 660.689 315.653 660.649 316.586 659.929C317.28 659.369 317.586 658.529 317.506 657.409C317.426 656.503 317.12 655.569 316.586 654.609C314.346 651.089 310.306 648.649 304.466 647.289C304.333 647.263 304.026 647.196 303.546 647.089C303.146 646.156 302.546 645.356 301.746 644.689C300.893 643.996 299.733 643.396 298.266 642.889C297.44 642.596 296.146 642.196 294.386 641.689C291.693 640.863 288.773 639.529 285.626 637.689C283.973 636.729 281.226 634.943 277.386 632.329C274.186 630.249 272.053 628.863 270.986 628.169C283.866 625.929 294.12 624.183 301.746 622.929C301.8 622.929 301.84 622.929 301.866 622.929C304.613 623.543 307.653 623.343 310.986 622.329C313.2 621.689 316.146 620.436 319.826 618.569C320.92 618.036 321.706 617.596 322.186 617.249C323.013 616.689 323.64 616.049 324.066 615.329C324.84 614.156 325.013 612.769 324.586 611.169C324.186 609.676 323.413 608.436 322.266 607.449Z" fill="#becbd5" fill-rule="nonzero" opacity="1" stroke="none" vectornator:layerName="path"/>
</g>
</svg>
