<?xml version="1.0" encoding="UTF-8" standalone="no"?>
<!DOCTYPE svg PUBLIC "-//W3C//DTD SVG 1.1//EN" "http://www.w3.org/Graphics/SVG/1.1/DTD/svg11.dtd">
<svg width="138" height="138" viewBox="0 0 138 138" fill="none" version="1.1"
  xmlns="http://www.w3.org/2000/svg">
  <path d="M112.221 26.868C111.189 28.794 109.91 31.348 108.793 34.0736C107.622 36.9285 106.607 40.025 106.26 42.8088C105.92 45.5473 106.194 48.2644 107.966 50.0397C109.548 51.6259 112.01 52.9184 114.695 53.9716C117.405 55.0342 120.45 55.8935 123.291 56.5664C126.135 57.2402 128.795 57.7319 130.743 58.0551C130.953 58.09 131.156 58.123 131.349 58.1541C130.923 58.4443 130.445 58.7727 129.926 59.1341C127.777 60.63 124.916 62.6964 122.076 64.9729C119.244 67.244 116.402 69.7488 114.31 72.1216C113.265 73.3071 112.382 74.4888 111.782 75.6167C111.191 76.7287 110.819 77.8966 110.958 79.0127C111.097 80.1301 111.736 81.1472 112.574 82.0433C113.421 82.949 114.55 83.8153 115.827 84.6322C118.385 86.2672 121.682 87.793 124.908 89.095C128.143 90.4005 131.347 91.4969 133.739 92.2662C133.973 92.3415 134.199 92.4137 134.418 92.4827C134.02 92.6014 133.595 92.7309 133.146 92.871C130.401 93.7271 126.747 94.983 123.137 96.5786C119.541 98.1681 115.923 100.122 113.293 102.395C110.688 104.645 108.834 107.407 109.324 110.58C110.142 115.886 111.084 122.119 111.821 127.027C112.173 129.365 112.478 131.402 112.7 132.894C112.311 132.571 111.874 132.211 111.397 131.822C109.363 130.163 106.588 127.965 103.629 125.817C100.676 123.673 97.5136 121.558 94.7099 120.079C93.3094 119.34 91.9685 118.744 90.7683 118.386C89.5962 118.036 88.4216 117.871 87.4274 118.156C85.6268 118.672 84.1047 120.329 82.8622 122.209C81.5882 124.136 80.4686 126.515 79.5461 128.8C78.6208 131.093 77.8793 133.328 77.3697 134.987C77.3417 135.078 77.3143 135.168 77.2877 135.256C77.2249 135.138 77.1598 135.017 77.0924 134.893C76.2183 133.285 74.9463 131.127 73.3572 128.938C71.7713 126.752 69.8487 124.507 67.6669 122.747C65.4892 120.99 62.9896 119.665 60.2616 119.438C57.5255 119.209 54.4044 120.233 51.3594 121.759C48.2873 123.299 45.1603 125.417 42.3702 127.54C39.5758 129.667 37.0955 131.816 35.315 133.432C35.3053 133.441 35.2957 133.45 35.2861 133.459C35.4215 133.02 35.5654 132.549 35.7159 132.049C36.6569 128.923 37.8613 124.657 38.9122 120.103C39.9618 115.555 40.8648 110.691 41.1928 106.379C41.5161 102.127 41.3026 98.1882 39.922 95.6516C38.5106 93.0582 35.9077 91.5985 33.0072 90.8146C30.1019 90.0294 26.761 89.882 23.641 90.0167C22.0386 90.0858 20.4796 90.2302 19.0473 90.4064C20.2301 89.7937 21.4883 89.1158 22.7477 88.3942C25.3278 86.9159 27.95 85.2336 29.9396 83.5353C30.9338 82.6867 31.8011 81.8082 32.4269 80.9227C33.0457 80.0473 33.4903 79.0776 33.4903 78.0679C33.4903 76.9708 32.8176 75.8734 31.9869 74.8905C31.1193 73.864 29.9095 72.7682 28.504 71.6531C25.6878 69.4186 21.9573 67.0062 18.2587 64.7924C14.6004 62.6028 10.9455 60.591 8.18424 59.1162C8.51525 59.1495 8.85843 59.1837 9.21281 59.2183C13.0235 59.5912 18.1349 60.029 23.3274 60.2866C28.5114 60.5438 33.8123 60.6235 37.9885 60.2715C40.0714 60.0959 41.9242 59.8092 43.3587 59.3622C44.0764 59.1386 44.7272 58.8634 45.2598 58.5163C45.7908 58.1701 46.2599 57.7156 46.5165 57.1154C46.9368 56.1327 46.9256 54.8495 46.7288 53.5152C46.5265 52.1437 46.1008 50.5526 45.5348 48.851C44.4018 45.4444 42.6659 41.4754 40.8673 37.7158C39.066 33.9504 37.1891 30.3689 35.7636 27.7304C35.5348 27.3068 35.3175 26.9074 35.1139 26.5352C35.2516 26.6121 35.393 26.6908 35.5378 26.7711C37.698 27.9696 40.6336 29.544 43.7276 31.0427C46.8151 32.5383 50.0897 33.973 52.9207 34.8794C54.3346 35.332 55.6707 35.6637 56.8363 35.7976C57.9706 35.9278 59.0926 35.8898 59.9711 35.4496C60.8334 35.0175 61.5861 34.1338 62.2438 33.1243C62.9222 32.0829 63.5875 30.7669 64.2283 29.2984C65.5112 26.3583 66.7431 22.6968 67.8123 19.1422C68.8832 15.5818 69.7987 12.1021 70.4461 9.51441C70.586 8.9553 70.7134 8.43757 70.8273 7.96939C71.0514 8.42373 71.3025 8.92893 71.5774 9.47665C72.8056 11.9229 74.5129 15.2215 76.4275 18.626C78.34 22.0266 80.4698 25.5516 82.5434 28.4423C83.58 29.8873 84.6136 31.1896 85.6093 32.2437C86.5939 33.286 87.5922 34.141 88.5653 34.6286C89.5878 35.141 90.7947 35.302 92.0529 35.2534C93.3169 35.2044 94.6975 34.9413 96.1179 34.5436C98.9575 33.7487 102.075 32.3821 104.946 30.9329C107.72 29.5328 110.297 28.0388 112.221 26.868Z" fill="black" stroke="black" stroke-width="2"/>
  <path d="M55.1478 30.1317C55.9715 29.7221 56.7878 28.8835 57.5619 27.8985C58.3592 26.8837 59.2011 25.5951 60.0544 24.1484C61.7624 21.2524 63.5641 17.6405 65.2022 14.1271C66.8423 10.6094 68.3275 7.17074 69.4022 4.61291C69.6537 4.01423 69.8828 3.46357 70.0863 2.9712C70.2158 3.37676 70.3591 3.82028 70.5152 4.29618C71.3101 6.71919 72.4396 9.98774 73.776 13.3622C75.1103 16.7313 76.6611 20.2321 78.3021 23.1081C79.1226 24.546 79.9774 25.8487 80.8525 26.9073C81.7187 27.9552 82.6535 28.8242 83.6496 29.3196C84.6366 29.8105 85.8974 30.0526 87.2712 30.1453C88.6595 30.2389 90.241 30.1842 91.9179 30.0291C95.2719 29.7187 99.0962 28.9976 102.687 28.1812C106.283 27.3636 109.67 26.4447 112.156 25.7309C112.54 25.6207 112.902 25.5154 113.24 25.4161C113.08 25.629 112.912 25.8533 112.737 26.088C111.301 28.0138 109.4 30.6446 107.549 33.4579C105.702 36.2654 103.885 39.2815 102.63 41.9727C102.003 43.3174 101.503 44.6093 101.214 45.7719C100.93 46.9125 100.82 48.0429 101.096 49.0033C101.39 50.027 102.173 50.8531 103.099 51.52C104.041 52.1981 105.248 52.7952 106.588 53.3246C109.272 54.3847 112.657 55.2359 115.943 55.8999C119.238 56.5657 122.477 57.0513 124.889 57.3703C125.344 57.4306 125.77 57.4849 126.162 57.5334C125.733 57.8212 125.256 58.1439 124.738 58.4961C122.512 60.0103 119.541 62.0737 116.568 64.2664C113.599 66.4555 110.607 68.7887 108.35 70.8409C107.223 71.8647 106.254 72.8414 105.559 73.712C105.211 74.1471 104.914 74.5778 104.7 74.9928C104.492 75.3957 104.323 75.8589 104.323 76.3394C104.323 76.833 104.5 77.2861 104.727 77.6711C104.956 78.0604 105.27 78.4387 105.629 78.8014C106.345 79.526 107.333 80.283 108.466 81.0409C110.74 82.5614 113.745 84.1827 116.716 85.6605C119.695 87.1418 122.669 88.4938 124.898 89.4745C125.174 89.5962 125.439 89.7122 125.691 89.822C125.643 89.8325 125.594 89.8432 125.545 89.854C123.573 90.287 120.907 90.8989 118.136 91.6135C115.369 92.3271 112.48 93.1476 110.067 93.9991C108.862 94.4246 107.758 94.8637 106.842 95.3079C105.946 95.7422 105.147 96.2191 104.618 96.7456C104.252 97.1088 104.031 97.5799 103.891 98.0505C103.748 98.5279 103.669 99.072 103.633 99.6506C103.56 100.807 103.651 102.222 103.846 103.772C104.236 106.878 105.064 110.68 105.986 114.347C106.909 118.021 107.934 121.589 108.728 124.237C108.836 124.598 108.94 124.942 109.038 125.266C108.729 125.003 108.397 124.723 108.045 124.428C105.83 122.568 102.83 120.119 99.6974 117.77C96.573 115.426 93.2835 113.156 90.4969 111.672C89.1089 110.933 87.7946 110.362 86.6585 110.088C85.5777 109.829 84.3642 109.768 83.4723 110.478C82.3121 111.401 81.1153 112.996 79.9972 114.76C78.8627 116.55 77.749 118.613 76.7719 120.557C75.7934 122.504 74.9447 124.346 74.3409 125.7C74.2974 125.798 74.2551 125.893 74.2142 125.985C74.1359 125.838 74.0536 125.683 73.9675 125.522C73.2103 124.105 72.1568 122.188 70.9733 120.192C69.7917 118.199 68.4713 116.111 67.1802 114.36C65.9183 112.648 64.5907 111.125 63.3796 110.402C62.8625 110.093 62.2757 110.056 61.7491 110.122C61.2175 110.189 60.6493 110.372 60.0727 110.619C58.918 111.115 57.5603 111.945 56.1048 112.968C53.1837 115.021 49.7032 117.972 46.3781 120.974C43.0469 123.982 39.8466 127.064 37.4807 129.392C36.8545 130.008 36.2865 130.571 35.7896 131.067C35.8871 130.454 35.9947 129.764 36.109 129.011C36.5824 125.893 37.1715 121.69 37.6328 117.356C38.0935 113.028 38.43 108.542 38.3911 104.867C38.3717 103.033 38.2586 101.367 38.0095 100.01C37.7702 98.7067 37.3724 97.4847 36.6293 96.7456C35.9587 96.0785 34.9589 95.5869 33.8507 95.2039C32.7204 94.8134 31.371 94.5009 29.9068 94.2484C26.9766 93.7432 23.4848 93.4617 20.1511 93.3086C16.8117 93.1553 13.6043 93.1299 11.2336 93.1426C10.8753 93.1446 10.5359 93.1474 10.218 93.1507C10.5164 92.9025 10.8388 92.6329 11.1815 92.3442C13.1032 90.7259 15.6686 88.5059 18.2368 86.1047C20.8003 83.7077 23.388 81.1104 25.3419 78.7392C26.3181 77.5546 27.1552 76.4036 27.7532 75.3449C28.3366 74.312 28.7595 73.2519 28.7595 72.2788C28.7595 71.1778 28.1054 70.1637 27.2966 69.3C26.4606 68.4074 25.3029 67.5104 23.9719 66.6342C21.3039 64.878 17.778 63.1015 14.2927 61.5211C11.3041 60.1659 8.31868 58.9429 5.88222 57.9876C5.89648 57.9877 5.91077 57.9879 5.92508 57.988C9.51849 58.0262 14.3483 58.0009 19.2821 57.7456C24.2067 57.4909 29.2756 57.0053 33.3308 56.112C35.3558 55.6659 37.1728 55.1088 38.606 54.4037C40.0133 53.7113 41.2065 52.8002 41.7412 51.5593C42.2313 50.4219 42.3103 49.0332 42.1604 47.5676C42.009 46.087 41.6135 44.4326 41.0632 42.7014C39.9623 39.2384 38.2035 35.351 36.3637 31.7276C34.5208 28.0977 32.5808 24.702 31.1031 22.2158C30.9492 21.9569 30.8003 21.7078 30.657 21.4692C30.7037 21.495 30.7507 21.5209 30.7981 21.547C32.9511 22.7325 35.877 24.2899 38.9607 25.7725C42.038 27.2519 45.3017 28.6711 48.1232 29.5676C49.5324 30.0154 50.8638 30.3434 52.0251 30.4758C53.1553 30.6046 54.2727 30.567 55.1478 30.1317Z" fill="white" stroke="black" stroke-width="2"/>
  <g clip-path="url(#clip0_301_81)">
    <path d="M88.1391 64.7513V88.5743C88.1377 89.7893 87.65 90.9534 86.7839 91.8124C85.9172 92.6714 84.7423 93.1543 83.517 93.1556H59.482C58.2567 93.1543 57.0817 92.6714 56.2151 91.8124C55.3489 90.9534 54.8612 89.7893 54.8599 88.5743V64.7513C54.8612 63.5368 55.3489 62.3722 56.2151 61.5136C57.0817 60.6546 58.2567 60.1718 59.482 60.1699H83.517C84.7423 60.1718 85.9172 60.6546 86.7839 61.5136C87.6505 62.3726 88.1377 63.5368 88.1391 64.7513ZM86.2902 71.1652V67.5001C86.2902 66.7712 85.9981 66.0721 85.4781 65.5567C84.9581 65.0408 84.2523 64.7513 83.517 64.7513H59.482C58.7466 64.7513 58.0408 65.0408 57.5208 65.5567C57.0008 66.0721 56.7087 66.7712 56.7087 67.5001V71.1652C56.7087 71.8945 57.0008 72.5936 57.5208 73.109C58.0408 73.6244 58.7466 73.914 59.482 73.914H83.517C84.2523 73.914 84.9581 73.6244 85.4781 73.109C85.9981 72.5936 86.2902 71.8945 86.2902 71.1652Z" fill="#FF385C"/>
    <path d="M82.5926 52.84V58.3376H80.7438V52.84C80.7438 50.41 79.7699 48.0795 78.0361 46.361C76.3024 44.6426 73.9511 43.6777 71.4996 43.6777C69.048 43.6777 66.6967 44.643 64.963 46.361C63.2292 48.0795 62.2553 50.41 62.2553 52.84V58.3376H60.4065V52.84C60.4097 49.9253 61.5796 47.1298 63.6595 45.0686C65.739 43.0075 68.559 41.8479 71.5 41.8447C74.4415 41.847 77.2615 43.0056 79.3414 45.0672C81.4214 47.1289 82.5908 49.9244 82.5926 52.84Z" fill="#FF385C"/>
    <path d="M89.9884 64.7522V88.5752C89.986 90.2754 89.3034 91.9054 88.0905 93.108C86.8772 94.3101 85.2327 94.9868 83.5174 94.9891H59.4824C57.7667 94.9868 56.1222 94.3101 54.9093 93.108C53.696 91.9054 53.0133 90.2754 53.0115 88.5752V64.7522C53.0142 63.2115 53.5763 61.723 54.5945 60.5589C55.6128 59.3948 57.0198 58.6329 58.558 58.4116V52.8407C58.5575 50.3035 59.3165 47.8232 60.7387 45.7135C62.1605 43.6033 64.1817 41.9591 66.5469 40.9883C68.9115 40.0175 71.5138 39.7632 74.0245 40.258C76.5352 40.7533 78.8412 41.9751 80.6512 43.7692H80.6517C81.8571 44.958 82.813 46.3718 83.4633 47.929C84.1141 49.4858 84.4464 51.1552 84.4418 52.8407V58.4116C85.9801 58.6329 87.3866 59.3948 88.4048 60.5589C89.4231 61.723 89.9851 63.2115 89.9884 64.7522ZM88.1391 88.5748V64.7517C88.1377 63.5372 87.65 62.3727 86.7839 61.5141C85.9177 60.6556 84.7423 60.1722 83.5169 60.1704H59.482C58.2566 60.1722 57.0817 60.6551 56.2151 61.5141C55.3489 62.3727 54.8612 63.5372 54.8599 64.7517V88.5748C54.8612 89.7897 55.3489 90.9538 56.2151 91.8129C57.0817 92.6719 58.2566 93.1547 59.482 93.1561H83.5169C84.7423 93.1547 85.9172 92.6719 86.7839 91.8129C87.65 90.9538 88.1377 89.7897 88.1391 88.5748ZM82.5925 58.3379V52.8402C82.5907 49.9247 81.4213 47.1291 79.3413 45.0675C77.2614 43.0059 74.4414 41.8473 71.4999 41.845C68.5589 41.8482 65.7389 43.0078 63.6594 45.0689C61.5795 47.13 60.4096 49.9256 60.4064 52.8402V58.3379H62.2552V52.8402C62.2552 50.4103 63.2291 48.0798 64.9629 46.3613C66.6966 44.6433 69.0479 43.678 71.4995 43.678C73.951 43.678 76.3023 44.6428 78.036 46.3613C79.7698 48.0798 80.7437 50.4103 80.7437 52.8402V58.3379H82.5925ZM78.8948 58.3379V52.8402C78.8948 50.2215 77.4851 47.8017 75.1971 46.4923C72.9092 45.183 70.0897 45.183 67.8018 46.4923C65.5138 47.8017 64.1041 50.2215 64.1041 52.8402V58.3379H78.8948Z" fill="black"/>
    <path d="M86.2902 67.5008V71.1658C86.2902 71.8952 85.9981 72.5943 85.4781 73.1097C84.9582 73.6251 84.2524 73.9146 83.517 73.9146H59.482C58.7466 73.9146 58.0408 73.6251 57.5208 73.1097C57.0009 72.5943 56.7087 71.8952 56.7087 71.1658V67.5008C56.7087 66.7719 57.0009 66.0728 57.5208 65.5574C58.0408 65.0415 58.7466 64.752 59.482 64.752H83.517C84.2524 64.752 84.9582 65.0415 85.4781 65.5574C85.9981 66.0728 86.2902 66.7719 86.2902 67.5008ZM84.4414 71.1658V67.5008C84.4414 67.2575 84.3439 67.0248 84.1705 66.853C83.9972 66.6812 83.762 66.5845 83.517 66.5845H80.7437V72.0821H83.517C83.762 72.0821 83.9972 71.9859 84.1705 71.8141C84.3439 71.6423 84.4414 71.4091 84.4414 71.1658ZM78.8949 72.0821V66.5845H75.1972V72.0821H78.8949ZM73.3483 72.0821V66.5845H69.6507V72.0821H73.3483ZM67.8018 72.0821V66.5845H64.1041V72.0821H67.8018ZM62.2553 72.0821V66.5845H59.482C59.237 66.5845 59.0018 66.6812 58.8284 66.853C58.6551 67.0248 58.5576 67.258 58.5576 67.5008V71.1658C58.5576 71.4091 58.6551 71.6418 58.8284 71.8136C59.0018 71.9859 59.237 72.0821 59.482 72.0821H62.2553Z" fill="black"/>
  </g>
  <defs>
    <clipPath id="clip0_301_81">
      <rect width="37" height="55" fill="white" transform="translate(53 40)"/>
    </clipPath>
  </defs>
</svg>
