<svg width="194" height="191" viewBox="0 0 194 191" fill="none" xmlns="http://www.w3.org/2000/svg">
<path d="M81.2257 42.4444C88.2888 38.9074 97 0 97 0C97 0 114.187 36.5494 123.604 41.2654C133.022 45.9815 161.039 27.1173 161.039 27.1173C161.039 27.1173 143.617 55.4136 151.857 63.6667C160.097 71.9197 188.35 75.4568 188.35 75.4568C188.35 75.4568 155.388 96.679 156.566 106.111C157.743 115.543 194 125.687 194 125.687C194 125.687 151.857 136.158 154.211 151.404C156.566 166.649 159.626 187.218 159.626 187.218C159.626 187.218 129.961 161.525 121.721 163.883C113.481 166.241 107.124 191 107.124 191C107.124 191 96.2937 166.953 82.1675 165.774C68.0413 164.595 43.3204 189.354 43.3204 189.354C43.3204 189.354 58.8592 143.84 51.7961 130.87C44.733 117.901 12.949 125.909 12.949 125.909C12.949 125.909 42.3786 113.185 42.3786 104.932C42.3786 96.679 0 75.4568 0 75.4568C0 75.4568 57.682 82.5309 61.2136 74.2778C64.7451 66.0247 42.3786 27.1173 42.3786 27.1173C42.3786 27.1173 74.1626 45.9815 81.2257 42.4444Z" fill="white" fill-opacity="0.5"/>
<path d="M142.221 53.868C141.189 55.794 139.91 58.348 138.793 61.0736C137.622 63.9285 136.607 67.025 136.26 69.8088C135.92 72.5473 136.194 75.2644 137.966 77.0397C139.548 78.6259 142.01 79.9184 144.695 80.9716C147.405 82.0342 150.45 82.8935 153.291 83.5664C156.135 84.2402 158.795 84.7319 160.743 85.0551C160.953 85.09 161.156 85.123 161.349 85.1541C160.923 85.4443 160.445 85.7727 159.926 86.1341C157.777 87.63 154.916 89.6964 152.076 91.9729C149.244 94.244 146.402 96.7488 144.31 99.1216C143.265 100.307 142.382 101.489 141.782 102.617C141.191 103.729 140.819 104.897 140.958 106.013C141.097 107.13 141.736 108.147 142.574 109.043C143.421 109.949 144.55 110.815 145.827 111.632C148.385 113.267 151.682 114.793 154.908 116.095C158.143 117.4 161.347 118.497 163.739 119.266C163.973 119.341 164.199 119.414 164.418 119.483C164.02 119.601 163.595 119.731 163.146 119.871C160.401 120.727 156.747 121.983 153.137 123.579C149.541 125.168 145.923 127.122 143.293 129.395C140.688 131.645 138.834 134.407 139.324 137.58C140.142 142.886 141.084 149.119 141.821 154.027C142.173 156.365 142.478 158.402 142.7 159.894C142.311 159.571 141.874 159.211 141.397 158.822C139.363 157.163 136.588 154.965 133.629 152.817C130.676 150.673 127.514 148.558 124.71 147.079C123.309 146.34 121.968 145.744 120.768 145.386C119.596 145.036 118.422 144.871 117.427 145.156C115.627 145.672 114.105 147.329 112.862 149.209C111.588 151.136 110.469 153.515 109.546 155.8C108.621 158.093 107.879 160.328 107.37 161.987C107.342 162.078 107.314 162.168 107.288 162.256C107.225 162.138 107.16 162.017 107.092 161.893C106.218 160.285 104.946 158.127 103.357 155.938C101.771 153.752 99.8487 151.507 97.6669 149.747C95.4892 147.99 92.9896 146.665 90.2616 146.438C87.5255 146.209 84.4044 147.233 81.3594 148.759C78.2873 150.299 75.1603 152.417 72.3702 154.54C69.5758 156.667 67.0955 158.816 65.315 160.432C65.3053 160.441 65.2957 160.45 65.2861 160.459C65.4215 160.02 65.5654 159.549 65.7159 159.049C66.6569 155.923 67.8613 151.657 68.9122 147.103C69.9618 142.555 70.8648 137.691 71.1928 133.379C71.5161 129.127 71.3026 125.188 69.922 122.652C68.5106 120.058 65.9077 118.598 63.0072 117.815C60.1019 117.029 56.761 116.882 53.641 117.017C52.0386 117.086 50.4796 117.23 49.0473 117.406C50.2301 116.794 51.4883 116.116 52.7477 115.394C55.3278 113.916 57.95 112.234 59.9396 110.535C60.9338 109.687 61.8011 108.808 62.4269 107.923C63.0457 107.047 63.4903 106.078 63.4903 105.068C63.4903 103.971 62.8176 102.873 61.9869 101.89C61.1193 100.864 59.9095 99.7682 58.504 98.6531C55.6878 96.4186 51.9573 94.0062 48.2587 91.7924C44.6004 89.6028 40.9455 87.591 38.1842 86.1162C38.5153 86.1495 38.8584 86.1837 39.2128 86.2183C43.0235 86.5912 48.1349 87.029 53.3274 87.2866C58.5114 87.5438 63.8123 87.6235 67.9885 87.2715C70.0714 87.0959 71.9242 86.8092 73.3587 86.3622C74.0764 86.1386 74.7272 85.8634 75.2598 85.5163C75.7908 85.1701 76.2599 84.7156 76.5165 84.1154C76.9368 83.1327 76.9256 81.8495 76.7288 80.5152C76.5265 79.1437 76.1008 77.5526 75.5348 75.851C74.4018 72.4444 72.6659 68.4754 70.8673 64.7158C69.066 60.9504 67.1891 57.3689 65.7636 54.7304C65.5348 54.3068 65.3175 53.9074 65.1139 53.5352C65.2516 53.6121 65.393 53.6908 65.5378 53.7711C67.698 54.9696 70.6336 56.544 73.7276 58.0427C76.8151 59.5383 80.0897 60.973 82.9207 61.8794C84.3346 62.332 85.6707 62.6637 86.8363 62.7976C87.9706 62.9278 89.0926 62.8898 89.9711 62.4496C90.8334 62.0175 91.5861 61.1338 92.2438 60.1243C92.9222 59.0829 93.5875 57.7669 94.2283 56.2984C95.5112 53.3583 96.7431 49.6968 97.8123 46.1422C98.8832 42.5818 99.7987 39.1021 100.446 36.5144C100.586 35.9553 100.713 35.4376 100.827 34.9694C101.051 35.4237 101.302 35.9289 101.577 36.4766C102.806 38.9229 104.513 42.2215 106.428 45.626C108.34 49.0266 110.47 52.5516 112.543 55.4423C113.58 56.8873 114.614 58.1896 115.609 59.2437C116.594 60.286 117.592 61.141 118.565 61.6286C119.588 62.141 120.795 62.302 122.053 62.2534C123.317 62.2044 124.698 61.9413 126.118 61.5436C128.957 60.7487 132.075 59.3821 134.946 57.9329C137.72 56.5328 140.297 55.0388 142.221 53.868Z" fill="black" stroke="black" stroke-width="2"/>
<path d="M85.1478 57.1317C85.9715 56.7221 86.7878 55.8835 87.5619 54.8985C88.3592 53.8837 89.2011 52.5951 90.0544 51.1484C91.7624 48.2524 93.5641 44.6405 95.2022 41.1271C96.8423 37.6094 98.3275 34.1707 99.4022 31.6129C99.6537 31.0142 99.8828 30.4636 100.086 29.9712C100.216 30.3768 100.359 30.8203 100.515 31.2962C101.31 33.7192 102.44 36.9877 103.776 40.3622C105.11 43.7313 106.661 47.2321 108.302 50.1081C109.123 51.546 109.977 52.8487 110.852 53.9073C111.719 54.9552 112.654 55.8242 113.65 56.3196C114.637 56.8105 115.897 57.0526 117.271 57.1453C118.66 57.2389 120.241 57.1842 121.918 57.0291C125.272 56.7187 129.096 55.9976 132.687 55.1812C136.283 54.3636 139.67 53.4447 142.156 52.7309C142.54 52.6207 142.902 52.5154 143.24 52.4161C143.08 52.629 142.912 52.8533 142.737 53.088C141.301 55.0138 139.4 57.6446 137.549 60.4579C135.702 63.2654 133.885 66.2815 132.63 68.9727C132.003 70.3174 131.503 71.6093 131.214 72.7719C130.93 73.9125 130.82 75.0429 131.096 76.0033C131.39 77.027 132.173 77.8531 133.099 78.52C134.041 79.1981 135.248 79.7952 136.588 80.3246C139.272 81.3847 142.657 82.2359 145.943 82.8999C149.238 83.5657 152.477 84.0513 154.889 84.3703C155.344 84.4306 155.77 84.4849 156.162 84.5334C155.733 84.8212 155.256 85.1439 154.738 85.4961C152.512 87.0103 149.541 89.0737 146.568 91.2664C143.599 93.4555 140.607 95.7887 138.35 97.8409C137.223 98.8647 136.254 99.8414 135.559 100.712C135.211 101.147 134.914 101.578 134.7 101.993C134.492 102.396 134.323 102.859 134.323 103.339C134.323 103.833 134.5 104.286 134.727 104.671C134.956 105.06 135.27 105.439 135.629 105.801C136.345 106.526 137.333 107.283 138.466 108.041C140.74 109.561 143.745 111.183 146.716 112.661C149.695 114.142 152.669 115.494 154.898 116.475C155.174 116.596 155.439 116.712 155.691 116.822C155.643 116.833 155.594 116.843 155.545 116.854C153.573 117.287 150.907 117.899 148.136 118.614C145.369 119.327 142.48 120.148 140.067 120.999C138.862 121.425 137.758 121.864 136.842 122.308C135.946 122.742 135.147 123.219 134.618 123.746C134.252 124.109 134.031 124.58 133.891 125.05C133.748 125.528 133.669 126.072 133.633 126.651C133.56 127.807 133.651 129.222 133.846 130.772C134.236 133.878 135.064 137.68 135.986 141.347C136.909 145.021 137.934 148.589 138.728 151.237C138.836 151.598 138.94 151.942 139.038 152.266C138.729 152.003 138.397 151.723 138.045 151.428C135.83 149.568 132.83 147.119 129.697 144.77C126.573 142.426 123.284 140.156 120.497 138.672C119.109 137.933 117.795 137.362 116.659 137.088C115.578 136.829 114.364 136.768 113.472 137.478C112.312 138.401 111.115 139.996 109.997 141.76C108.863 143.55 107.749 145.613 106.772 147.557C105.793 149.504 104.945 151.346 104.341 152.7C104.297 152.798 104.255 152.893 104.214 152.985C104.136 152.838 104.054 152.683 103.968 152.522C103.21 151.105 102.157 149.188 100.973 147.192C99.7917 145.199 98.4713 143.111 97.1802 141.36C95.9183 139.648 94.5907 138.125 93.3796 137.402C92.8625 137.093 92.2757 137.056 91.7491 137.122C91.2175 137.189 90.6493 137.372 90.0727 137.619C88.918 138.115 87.5603 138.945 86.1048 139.968C83.1837 142.021 79.7032 144.972 76.3781 147.974C73.0469 150.982 69.8466 154.064 67.4807 156.392C66.8545 157.008 66.2865 157.571 65.7896 158.067C65.8871 157.454 65.9947 156.764 66.109 156.011C66.5824 152.893 67.1715 148.69 67.6328 144.356C68.0935 140.028 68.43 135.542 68.3911 131.867C68.3717 130.033 68.2586 128.367 68.0095 127.01C67.7702 125.707 67.3724 124.485 66.6293 123.746C65.9587 123.079 64.9589 122.587 63.8507 122.204C62.7204 121.813 61.371 121.501 59.9068 121.248C56.9766 120.743 53.4848 120.462 50.1511 120.309C46.8117 120.155 43.6043 120.13 41.2336 120.143C40.8753 120.145 40.5359 120.147 40.218 120.151C40.5164 119.902 40.8388 119.633 41.1815 119.344C43.1032 117.726 45.6686 115.506 48.2368 113.105C50.8003 110.708 53.388 108.11 55.3419 105.739C56.3181 104.555 57.1552 103.404 57.7532 102.345C58.3366 101.312 58.7595 100.252 58.7595 99.2788C58.7595 98.1778 58.1054 97.1637 57.2966 96.3C56.4606 95.4074 55.3029 94.5104 53.9719 93.6342C51.3039 91.878 47.778 90.1015 44.2927 88.5211C41.3041 87.1659 38.3187 85.9429 35.8822 84.9876C35.8965 84.9877 35.9108 84.9879 35.9251 84.988C39.5185 85.0262 44.3483 85.0009 49.2821 84.7456C54.2067 84.4909 59.2756 84.0053 63.3308 83.112C65.3558 82.6659 67.1728 82.1088 68.606 81.4037C70.0133 80.7113 71.2065 79.8002 71.7412 78.5593C72.2313 77.4219 72.3103 76.0332 72.1604 74.5676C72.009 73.087 71.6135 71.4326 71.0632 69.7014C69.9623 66.2384 68.2035 62.351 66.3637 58.7276C64.5208 55.0977 62.5808 51.702 61.1031 49.2158C60.9492 48.9569 60.8003 48.7078 60.657 48.4692C60.7037 48.495 60.7507 48.5209 60.7981 48.547C62.9511 49.7325 65.877 51.2899 68.9607 52.7725C72.038 54.2519 75.3017 55.6711 78.1232 56.5676C79.5324 57.0154 80.8638 57.3434 82.0251 57.4758C83.1553 57.6046 84.2727 57.567 85.1478 57.1317Z" fill="#ECFFA2" stroke="black" stroke-width="2"/>
<g clip-path="url(#clip0_301_80)">
<path d="M118.139 91.7513V115.574C118.138 116.789 117.65 117.953 116.784 118.812C115.917 119.671 114.742 120.154 113.517 120.156H89.482C88.2567 120.154 87.0817 119.671 86.2151 118.812C85.3489 117.953 84.8612 116.789 84.8599 115.574V91.7513C84.8612 90.5368 85.3489 89.3722 86.2151 88.5136C87.0817 87.6546 88.2567 87.1718 89.482 87.1699H113.517C114.742 87.1718 115.917 87.6546 116.784 88.5136C117.651 89.3726 118.138 90.5368 118.139 91.7513ZM116.29 98.1652V94.5001C116.29 93.7712 115.998 93.0721 115.478 92.5567C114.958 92.0408 114.252 91.7513 113.517 91.7513H89.482C88.7466 91.7513 88.0408 92.0408 87.5208 92.5567C87.0008 93.0721 86.7087 93.7712 86.7087 94.5001V98.1652C86.7087 98.8945 87.0008 99.5936 87.5208 100.109C88.0408 100.624 88.7466 100.914 89.482 100.914H113.517C114.252 100.914 114.958 100.624 115.478 100.109C115.998 99.5936 116.29 98.8945 116.29 98.1652Z" fill="#FF385C"/>
<path d="M112.593 79.84V85.3376H110.744V79.84C110.744 77.41 109.77 75.0795 108.036 73.361C106.302 71.6426 103.951 70.6777 101.5 70.6777C99.048 70.6777 96.6967 71.643 94.963 73.361C93.2292 75.0795 92.2553 77.41 92.2553 79.84V85.3376H90.4065V79.84C90.4097 76.9253 91.5796 74.1298 93.6595 72.0686C95.739 70.0075 98.559 68.8479 101.5 68.8447C104.442 68.847 107.261 70.0056 109.341 72.0672C111.421 74.1289 112.591 76.9244 112.593 79.84Z" fill="#FF385C"/>
<path d="M119.988 91.7522V115.575C119.986 117.275 119.303 118.905 118.091 120.108C116.877 121.31 115.233 121.987 113.517 121.989H89.4824C87.7667 121.987 86.1222 121.31 84.9093 120.108C83.696 118.905 83.0133 117.275 83.0115 115.575V91.7522C83.0142 90.2115 83.5763 88.723 84.5945 87.5589C85.6128 86.3948 87.0198 85.6329 88.558 85.4116V79.8407C88.5575 77.3035 89.3165 74.8232 90.7387 72.7135C92.1605 70.6033 94.1817 68.9591 96.5469 67.9883C98.9115 67.0175 101.514 66.7632 104.025 67.258C106.535 67.7533 108.841 68.9751 110.651 70.7692H110.652C111.857 71.958 112.813 73.3718 113.463 74.929C114.114 76.4858 114.446 78.1552 114.442 79.8407V85.4116C115.98 85.6329 117.387 86.3948 118.405 87.5589C119.423 88.723 119.985 90.2115 119.988 91.7522ZM118.139 115.575V91.7517C118.138 90.5372 117.65 89.3727 116.784 88.5141C115.918 87.6556 114.742 87.1722 113.517 87.1704H89.482C88.2566 87.1722 87.0817 87.6551 86.2151 88.5141C85.3489 89.3727 84.8612 90.5372 84.8599 91.7517V115.575C84.8612 116.79 85.3489 117.954 86.2151 118.813C87.0817 119.672 88.2566 120.155 89.482 120.156H113.517C114.742 120.155 115.917 119.672 116.784 118.813C117.65 117.954 118.138 116.79 118.139 115.575ZM112.593 85.3379V79.8402C112.591 76.9247 111.421 74.1291 109.341 72.0675C107.261 70.0059 104.441 68.8473 101.5 68.845C98.5589 68.8482 95.7389 70.0078 93.6594 72.0689C91.5795 74.13 90.4096 76.9256 90.4064 79.8402V85.3379H92.2552V79.8402C92.2552 77.4103 93.2291 75.0798 94.9629 73.3613C96.6966 71.6433 99.0479 70.678 101.499 70.678C103.951 70.678 106.302 71.6428 108.036 73.3613C109.77 75.0798 110.744 77.4103 110.744 79.8402V85.3379H112.593ZM108.895 85.3379V79.8402C108.895 77.2215 107.485 74.8017 105.197 73.4923C102.909 72.183 100.09 72.183 97.8018 73.4923C95.5138 74.8017 94.1041 77.2215 94.1041 79.8402V85.3379H108.895Z" fill="black"/>
<path d="M116.29 94.5008V98.1658C116.29 98.8952 115.998 99.5943 115.478 100.11C114.958 100.625 114.252 100.915 113.517 100.915H89.482C88.7466 100.915 88.0408 100.625 87.5208 100.11C87.0009 99.5943 86.7087 98.8952 86.7087 98.1658V94.5008C86.7087 93.7719 87.0009 93.0728 87.5208 92.5574C88.0408 92.0415 88.7466 91.752 89.482 91.752H113.517C114.252 91.752 114.958 92.0415 115.478 92.5574C115.998 93.0728 116.29 93.7719 116.29 94.5008ZM114.441 98.1658V94.5008C114.441 94.2575 114.344 94.0248 114.171 93.853C113.997 93.6812 113.762 93.5845 113.517 93.5845H110.744V99.0821H113.517C113.762 99.0821 113.997 98.9859 114.171 98.8141C114.344 98.6423 114.441 98.4091 114.441 98.1658ZM108.895 99.0821V93.5845H105.197V99.0821H108.895ZM103.348 99.0821V93.5845H99.6507V99.0821H103.348ZM97.8018 99.0821V93.5845H94.1041V99.0821H97.8018ZM92.2553 99.0821V93.5845H89.482C89.237 93.5845 89.0018 93.6812 88.8284 93.853C88.6551 94.0248 88.5576 94.258 88.5576 94.5008V98.1658C88.5576 98.4091 88.6551 98.6418 88.8284 98.8136C89.0018 98.9859 89.237 99.0821 89.482 99.0821H92.2553Z" fill="black"/>
</g>
<defs>
<clipPath id="clip0_301_80">
<rect width="37" height="55" fill="white" transform="translate(83 67)"/>
</clipPath>
</defs>
</svg>
