<?xml version="1.0" encoding="UTF-8" standalone="no"?>
<!DOCTYPE svg PUBLIC "-//W3C//DTD SVG 1.1//EN" "http://www.w3.org/Graphics/SVG/1.1/DTD/svg11.dtd">
<!-- Created with Vectornator (http://vectornator.io/) -->
<svg height="100%" stroke-miterlimit="10" style="fill-rule:nonzero;clip-rule:evenodd;stroke-linecap:round;stroke-linejoin:round;" version="1.1" viewBox="0 0 1152 633.778" width="100%" xml:space="preserve"
  xmlns="http://www.w3.org/2000/svg"
  xmlns:vectornator="http://vectornator.io"
  xmlns:xlink="http://www.w3.org/1999/xlink">
  <defs/>
  <clipPath id="blokovi_ArtboardFrame">
    <rect height="633.778" width="1152" x="0" y="0"/>
  </clipPath>
  <g clip-path="url(#blokovi_ArtboardFrame)" id="Layer-1" vectornator:layerName="Layer 1">
    <path d="M1066 193.138C1065.07 193.378 1064.37 193.605 1063.92 193.818C1063.17 194.138 1062.63 194.565 1062.28 195.098C1061.8 195.845 1061.61 196.845 1061.72 198.098C1061.8 198.791 1061.95 199.858 1062.16 201.298C1062.24 202.445 1061.88 204.511 1061.08 207.498C1060.41 210.085 1060.29 212.125 1060.72 213.618C1060.83 213.991 1061.04 214.565 1061.36 215.338C1061.68 216.058 1061.89 216.618 1062 217.018C1062.16 217.631 1062.2 218.391 1062.12 219.298C1062.09 219.805 1062.03 220.565 1061.92 221.578C1061.92 222.885 1062.2 224.765 1062.76 227.218C1063.37 229.751 1063.69 231.605 1063.72 232.778C1063.75 233.605 1063.69 234.845 1063.56 236.498C1063.55 236.67 1063.54 236.83 1063.52 236.978L1030.2 237.498C1029.21 235.765 1028.44 233.471 1027.88 230.618C1024.28 212.511 1020.99 194.898 1018 177.778C1011.23 177.325 1004.52 176.458 997.88 175.178C993.304 174.27 988.797 173.576 984.36 173.098L984.08 145.338C984.027 143.658 983.947 142.458 983.84 141.738C983.653 140.431 983.28 139.338 982.72 138.458C982 137.311 980.827 136.285 979.2 135.378C977.253 134.445 975.813 133.725 974.88 133.218C974.107 132.845 972.547 131.911 970.2 130.418C968.253 129.218 966.64 128.391 965.36 127.938C963.52 127.271 961.693 127.098 959.88 127.418C957.88 127.791 956.4 128.685 955.44 130.098C954.827 130.978 954.347 132.418 954 134.418C953.6 136.498 953.16 137.965 952.68 138.818C951.827 140.018 951.227 140.925 950.88 141.538C950.24 142.578 950.04 143.525 950.28 144.378C950.44 144.885 950.84 145.418 951.48 145.978C952.333 146.751 952.84 147.245 953 147.458C953.56 148.098 953.933 148.978 954.12 150.098C954.227 150.685 954.307 151.685 954.36 153.098C954.542 159.82 955.116 166.553 956.08 173.298C950.798 173.956 945.638 174.983 940.6 176.378L936.52 207.578C932.947 207.551 929.333 207.551 925.68 207.578C906.293 208.671 887.733 207.765 870 204.858C868.933 202.858 868.28 200.605 868.04 198.098C866.893 185.645 864.853 173.858 861.92 162.738C861.013 161.885 859.653 161.471 857.84 161.498C848.613 161.605 840.453 162.925 833.36 165.458C833.36 167.218 833.32 168.605 833.24 169.618C832.52 179.591 829.84 186.805 825.2 191.258L806.2 189.858C804.52 184.978 803.467 179.098 803.04 172.218C800.533 132.458 797.093 93.5379 792.72 55.4579C786.24 53.7779 779.453 52.9913 772.36 53.0979C747.747 53.4979 723.307 52.9113 699.04 51.3379C698.747 68.4046 699.2 85.1513 700.4 101.578C702.827 134.511 700.987 164.378 694.88 191.178L650.08 188.418C650.053 186.605 649.96 184.818 649.8 183.058C648.253 165.858 647.907 148.645 648.76 131.418C645.507 130.191 641.44 129.738 636.56 130.058C618.747 131.685 600.64 132.591 582.24 132.778C581.333 135.018 580.68 137.698 580.28 140.818C579.084 150.534 577.537 160.134 575.64 169.618C573.702 169.196 571.555 169.116 569.2 169.378C566.907 169.645 563.92 170.338 560.24 171.458C554.747 173.005 550.64 174.525 547.92 176.018C546.187 176.978 543.72 178.645 540.52 181.018C539.347 181.925 538.48 182.658 537.92 183.218C537.5 183.65 537.14 184.077 536.84 184.498C526.672 184.48 517.365 183.52 508.92 181.618L506.64 164.498C506.64 161.319 505.787 158.239 504.08 155.258C502.933 153.258 501.48 151.538 499.72 150.098C497.453 148.285 494.84 147.245 491.88 146.978C488.84 146.711 486.173 147.338 483.88 148.858C483.16 149.365 482.16 150.205 480.88 151.378C479.227 153.031 478.16 154.298 477.68 155.178C477.2 156.111 476.867 157.231 476.68 158.538C476.573 159.338 476.493 160.538 476.44 162.138C476.414 163.999 476.427 165.599 476.48 166.938L464.12 169.338L460.04 185.618C458.387 186.498 456.6 187.098 454.68 187.418C448.067 188.698 442.613 189.005 438.32 188.338C436.8 188.098 435.747 187.258 435.16 185.818C428.387 169.045 422.213 152.685 416.64 136.738C413.093 136.365 409.853 136.391 406.92 136.818C390.173 139.431 374.4 142.565 359.6 146.218C359.147 147.125 358.88 148.045 358.8 148.978C357.733 159.458 355.28 168.045 351.44 174.738C350.533 174.738 349.653 174.845 348.8 175.058C334.027 178.365 319.973 179.151 306.64 177.418C306.187 177.418 305.947 177.378 305.92 177.298C302.8 161.058 299.88 146.165 297.16 132.618C294.253 131.978 292.2 132.125 291 133.058C289.24 134.471 287.68 135.685 286.32 136.698C280.16 108.618 275.64 80.0979 272.76 51.1379L254.2 51.7779C254.379 46.6112 254.179 40.2112 253.6 32.5779C252.72 20.6846 252.613 11.8979 253.28 6.21793C253.387 4.85793 253.44 4.07126 253.44 3.85793C253.44 2.97793 253.28 2.2446 252.96 1.65793C252.613 0.911264 252.027 0.404598 251.2 0.137931C250.373-0.128736 249.68-0.00873564 249.12 0.497931C248.64 0.977931 248.4 1.85793 248.4 3.13793C248.24 7.59126 248.187 13.3113 248.24 20.2979C248.373 26.2179 248.76 35.1913 249.4 47.2179C249.552 49.328 249.659 50.9014 249.72 51.9379L236.12 52.4579C237.267 74.2713 238.04 96.8979 238.44 120.338C239.24 166.231 237.067 211.031 231.92 254.738C230.16 255.191 228.36 255.698 226.52 256.258C214.307 259.911 201.627 262.565 188.48 264.218C187.573 263.765 186.933 263.178 186.56 262.458C180.427 250.271 177.013 236.378 176.32 220.778C172.453 220.111 169.613 220.005 167.8 220.458C152.92 223.578 139.013 226.845 126.08 230.258C126.053 232.018 126.013 233.831 125.96 235.698C125.613 247.725 124.28 258.138 121.96 266.938C119.693 266.991 117.48 267.245 115.32 267.698C110.973 268.525 107.76 270.511 105.68 273.658C92.24 230.485 86.3867 183.885 88.12 133.858L84.04 129.778C81.7733 129.805 79.6267 130.165 77.6 130.858C63.3867 135.498 49.24 138.738 35.16 140.578C36.36 150.685 36.9467 161.551 36.92 173.178C36.76 218.431 37.5067 263.685 39.16 308.938L21.52 311.658L18.8 260.058C18.8 259.605 18.7467 259.365 18.64 259.338C12.8497 257.919 6.63635 257.399 0 257.778L0 633.778L1152 633.778L1152 261.858C1141.11 262.39 1130.36 262.883 1119.76 263.338C1118.32 262.431 1117.51 260.618 1117.32 257.898C1116.73 249.765 1117.11 242.525 1118.44 236.178L1088.16 236.618C1088.41 235.173 1088.49 233.573 1088.4 231.818C1087.89 227.418 1087.57 224.138 1087.44 221.978C1087.39 221.258 1087.44 217.205 1087.6 209.818C1087.71 204.938 1087.23 200.991 1086.16 197.978C1085.31 195.391 1084.03 193.671 1082.32 192.818C1081.07 192.071 1079.31 191.751 1077.04 191.858C1073.39 191.885 1069.71 192.311 1066 193.138M494.6 163.498C494.865 162.908 495.185 162.588 495.56 162.538C496.065 162.412 496.478 162.585 496.8 163.058L494.6 163.498M1068.68 224.498C1068.49 223.191 1068.6 222.191 1069 221.498C1069.45 220.778 1070.45 220.231 1072 219.858C1073.31 219.538 1074.32 219.365 1075.04 219.338C1076.19 219.311 1077.15 219.578 1077.92 220.138C1078.64 220.645 1079.17 221.458 1079.52 222.578C1079.73 223.271 1079.91 224.298 1080.04 225.658C1080.18 228.194 1080.44 231.887 1080.8 236.738L1070.16 236.898L1068.68 224.498Z" fill="#42b6de" fill-rule="nonzero" opacity="1" stroke="none" vectornator:layerName="path"/>
  </g>
</svg>
