<?xml version="1.0" encoding="UTF-8" standalone="no"?>
<!DOCTYPE svg PUBLIC "-//W3C//DTD SVG 1.1//EN" "http://www.w3.org/Graphics/SVG/1.1/DTD/svg11.dtd">
<!-- Created with Vectornator (http://vectornator.io/) -->
<svg height="100%" stroke-miterlimit="10" style="fill-rule:nonzero;clip-rule:evenodd;stroke-linecap:round;stroke-linejoin:round;" version="1.1" viewBox="0 0 1152 800" width="100%" xml:space="preserve" xmlns="http://www.w3.org/2000/svg" xmlns:vectornator="http://vectornator.io" xmlns:xlink="http://www.w3.org/1999/xlink">
<defs/>
<clipPath id="ArtboardFrame">
<rect height="800" width="1152" x="0" y="0"/>
</clipPath>
<g clip-path="url(#ArtboardFrame)" id="Layer-1" vectornator:layerName="Layer 1">
<path d="M705.255 257.916C701.262 263.401 699.109 269.161 698.796 275.197C687.533 276.08 676.427 278.022 665.477 281.021C654.509 284.021 643.974 288.005 633.87 292.974C630.079 294.833 627.135 296.728 625.037 298.661C622.185 301.255 620.574 304.089 620.206 307.163C609.864 305.948 597.267 306.537 582.416 308.929C579.361 309.426 573.076 310.567 563.562 312.352C555.741 313.806 549.447 314.855 544.681 315.499C541.828 315.886 536.758 316.475 529.471 317.266C523.03 317.965 517.96 318.6 514.261 319.171C502.63 320.974 493.042 323.872 485.497 327.866C482.332 329.522 479.82 331.436 477.961 333.608C475.679 336.239 474.676 338.972 474.952 341.806C475.173 344.217 476.332 346.499 478.43 348.652C480.013 350.29 482.212 351.909 485.028 353.51C496.272 359.97 508.473 364.387 521.631 366.76C529.949 368.196 540.678 368.978 553.818 369.107C561.91 369.252 570.541 369.307 579.711 369.272C579.683 369.4 579.656 369.528 579.628 369.659C578.561 374.573 579.297 379.541 581.836 384.565C584.21 389.313 587.67 393.15 592.215 396.076C599.816 400.935 609.809 403.115 622.194 402.619C628.212 402.379 631.23 402.26 631.248 402.26C634.689 402.26 637.661 402.628 640.164 403.364C642.078 403.916 644.259 404.901 646.707 406.318C648.105 407.109 650.194 408.342 652.973 410.017C661.088 414.654 669.793 417.488 679.086 418.519C682.178 418.868 686.264 419.071 691.343 419.126C697.618 419.181 701.713 419.264 703.627 419.374C707.215 419.577 711.706 420.055 717.098 420.81C725.324 421.969 729.805 422.595 730.541 422.687C737.792 423.57 745.972 424.095 755.081 424.26C760.694 424.371 768.893 424.334 779.677 424.15C800.877 423.837 817.053 423.469 828.205 423.046C846.111 422.365 862.223 421.252 876.54 419.706C883.92 418.914 890.048 418.022 894.925 417.028C901.532 415.666 907.421 413.863 912.592 411.618C915.058 410.532 917.119 409.418 918.775 408.277C919.416 407.843 920.014 407.392 920.569 406.925C926.996 407.173 932.315 407.255 936.525 407.173C948.818 406.934 959.722 405.545 969.236 403.005C973.027 401.993 976.247 400.87 978.898 399.637C982.265 398.073 985.062 396.196 987.289 394.006C988.982 392.387 990.298 390.62 991.237 388.706C992.286 386.59 992.773 384.482 992.7 382.385C992.608 378.244 990.528 374.517 986.461 371.205C983.461 368.776 979.275 366.503 973.901 364.387C990.261 361.276 1006.13 356.455 1021.52 349.922C1027.79 347.235 1032.75 344.355 1036.4 341.282C1041.22 337.215 1043.97 332.651 1044.65 327.59C1045.11 324.038 1044.49 320.45 1042.77 316.824C1041.21 313.456 1038.95 310.512 1035.98 307.991C1033.37 305.746 1030.22 303.777 1026.54 302.083C1023.69 300.777 1020.17 299.498 1015.97 298.246C1000.57 293.627 982.836 290.674 962.777 289.385C950.539 288.613 932.43 288.382 908.451 288.695C907.347 285.42 905.295 282.54 902.295 280.055C899.572 277.792 896.37 276.089 892.689 274.948C889.597 273.991 886.027 273.384 881.979 273.126C879.697 272.979 876.071 272.933 871.102 272.988C869.667 267.964 867.054 263.29 863.263 258.965C859.729 254.972 855.488 251.595 850.537 248.835C846.176 246.405 841.179 244.372 835.548 242.734C831.058 241.446 825.73 240.296 819.565 239.284C798.475 235.769 777.22 234.83 755.799 236.468C748.493 237.057 742.245 237.931 737.056 239.09C730.357 240.581 724.496 242.725 719.472 245.522C713.693 248.706 708.954 252.837 705.255 257.916Z" fill="#d4f3ff" fill-opacity="0.639216" fill-rule="nonzero" opacity="1" stroke="none" vectornator:layerName="path"/>
<path d="M1203.6 489.877C1200.91 486.517 1197.28 484.397 1192.72 483.517C1188.16 482.637 1184.01 483.263 1180.28 485.397C1176.87 479.263 1172.45 472.677 1167.04 465.637C1163.97 461.637 1158.92 455.477 1151.88 447.157C1148.73 443.45 1146.37 440.77 1144.8 439.117C1142.08 436.237 1139.47 433.823 1136.96 431.877C1131.28 427.343 1123.96 423.597 1115 420.637C1106.25 417.73 1097.25 415.903 1088 415.157C1078.75 414.437 1069.57 414.837 1060.48 416.357C1047.89 418.463 1038.53 422.663 1032.4 428.957C1027.79 433.65 1024.52 439.797 1022.6 447.397C1021.08 453.45 1020.37 460.623 1020.48 468.917C1016.05 467.45 1011.48 467.077 1006.76 467.797C1002.01 468.49 997.745 470.183 993.959 472.877C992.225 474.13 990.439 475.73 988.599 477.677C987.479 478.823 985.865 480.623 983.759 483.077C980.185 487.29 977.492 490.437 975.679 492.517C974.932 493.397 974.305 494.063 973.799 494.517C973.052 495.183 972.292 495.65 971.519 495.917C970.399 496.317 969.079 496.303 967.559 495.877C966.679 495.61 965.399 495.063 963.719 494.237C953.105 489.037 941.945 485.997 930.239 485.117C923.225 484.61 916.959 485.357 911.439 487.357C904.905 489.703 900.505 493.517 898.239 498.797C888.319 498.29 879.959 498.13 873.159 498.317C864.065 498.557 855.785 499.41 848.319 500.877C839.652 502.583 831.692 505.157 824.439 508.597C816.465 512.41 809.665 517.143 804.039 522.797C798.092 528.743 795.492 534.41 796.239 539.797C796.612 542.463 797.825 544.943 799.879 547.237C801.745 549.343 804.039 550.983 806.759 552.157C809.052 553.197 811.759 553.957 814.879 554.437C816.745 554.73 819.599 555.01 823.439 555.277C846.879 556.823 872.705 557.903 900.919 558.517C921.505 558.943 947.372 559.183 978.519 559.237C995.585 559.237 1006.41 559.25 1011 559.277C1023.24 559.33 1034.09 559.49 1043.56 559.757C1053.51 560.05 1070.56 560.823 1094.72 562.077C1116.51 563.197 1133.56 563.877 1145.88 564.117C1191.24 565.077 1236.63 562.517 1282.04 556.437C1284.36 556.143 1286.19 555.783 1287.52 555.357C1289.52 554.743 1291.11 553.877 1292.28 552.757C1294.39 550.757 1295.39 548.077 1295.28 544.717C1295.17 541.623 1294.23 538.703 1292.44 535.957C1290.49 533.023 1287.97 530.597 1284.88 528.677C1281.76 526.783 1278.45 525.637 1274.96 525.237C1273.84 525.103 1271.27 525.063 1267.24 525.117C1264.04 525.143 1261.51 524.89 1259.64 524.357C1257.37 523.663 1254.91 522.303 1252.24 520.277C1249.31 517.797 1247.08 515.983 1245.56 514.837C1242.95 512.837 1240.39 511.45 1237.88 510.677C1234.87 509.717 1232.15 509.757 1229.72 510.797C1228.79 507.037 1227.79 503.917 1226.72 501.437C1225.28 498.157 1223.52 495.463 1221.44 493.357C1219.07 490.903 1216.23 489.303 1212.92 488.557C1209.43 487.783 1206.32 488.223 1203.6 489.877Z" fill="#d4f3ff" fill-opacity="0.639216" fill-rule="nonzero" opacity="1" stroke="none" vectornator:layerName="path 1"/>
<path d="M264.199 417.437C261.505 414.077 257.879 411.957 253.319 411.077C248.759 410.197 244.612 410.823 240.879 412.957C237.465 406.823 233.052 400.237 227.639 393.197C224.572 389.197 219.519 383.037 212.479 374.717C209.332 371.01 206.972 368.33 205.399 366.677C202.679 363.797 200.065 361.383 197.559 359.437C191.879 354.903 184.559 351.157 175.599 348.197C166.852 345.29 157.852 343.463 148.599 342.717C139.345 341.997 130.172 342.397 121.079 343.917C108.492 346.023 99.1319 350.223 92.9986 356.517C88.3853 361.21 85.1186 367.357 83.1986 374.957C81.6786 381.01 80.9719 388.183 81.0786 396.477C76.6519 395.01 72.0786 394.637 67.3586 395.357C62.6119 396.05 58.3453 397.743 54.5586 400.437C52.8253 401.69 51.0386 403.29 49.1986 405.237C48.0786 406.383 46.4653 408.183 44.3586 410.637C40.7853 414.85 38.0919 417.997 36.2786 420.077C35.5319 420.957 34.9053 421.623 34.3986 422.077C33.6519 422.743 32.8919 423.21 32.1186 423.477C30.9986 423.877 29.6786 423.863 28.1586 423.437C27.2786 423.17 25.9986 422.623 24.3186 421.797C13.7053 416.597 2.54527 413.557-9.1614 412.677C-16.1747 412.17-22.4414 412.917-27.9614 414.917C-34.4947 417.263-38.8947 421.077-41.1614 426.357C-51.0814 425.85-59.4414 425.69-66.2414 425.877C-75.3347 426.117-83.6147 426.97-91.0814 428.437C-99.7481 430.143-107.708 432.717-114.961 436.157C-122.935 439.97-129.735 444.703-135.361 450.357C-141.308 456.303-143.908 461.97-143.161 467.357C-142.788 470.023-141.575 472.503-139.521 474.797C-137.655 476.903-135.361 478.543-132.641 479.717C-130.348 480.757-127.641 481.517-124.521 481.997C-122.655 482.29-119.801 482.57-115.961 482.837C-92.5214 484.383-66.6947 485.463-38.4814 486.077C-17.8947 486.503 7.97193 486.743 39.1186 486.797C56.1853 486.797 67.0119 486.81 71.5986 486.837C83.8386 486.89 94.6919 487.05 104.159 487.317C114.105 487.61 131.159 488.383 155.319 489.637C177.105 490.757 194.159 491.437 206.479 491.677C251.839 492.637 297.225 490.077 342.639 483.997C344.959 483.703 346.785 483.343 348.119 482.917C350.119 482.303 351.705 481.437 352.879 480.317C354.985 478.317 355.985 475.637 355.879 472.277C355.772 469.183 354.825 466.263 353.039 463.517C351.092 460.583 348.572 458.157 345.479 456.237C342.359 454.343 339.052 453.197 335.559 452.797C334.439 452.663 331.865 452.623 327.839 452.677C324.639 452.703 322.105 452.45 320.239 451.917C317.972 451.223 315.505 449.863 312.839 447.837C309.905 445.357 307.679 443.543 306.159 442.397C303.545 440.397 300.985 439.01 298.479 438.237C295.465 437.277 292.745 437.317 290.319 438.357C289.385 434.597 288.385 431.477 287.319 428.997C285.879 425.717 284.119 423.023 282.039 420.917C279.665 418.463 276.825 416.863 273.519 416.117C270.025 415.343 266.919 415.783 264.199 417.437Z" fill="#d4f3ff" fill-opacity="0.639216" fill-rule="nonzero" opacity="1" stroke="none" vectornator:layerName="path 2"/>
</g>
</svg>
