<?xml version="1.0" encoding="UTF-8" standalone="no"?>
<!DOCTYPE svg PUBLIC "-//W3C//DTD SVG 1.1//EN" "http://www.w3.org/Graphics/SVG/1.1/DTD/svg11.dtd">
<!-- Created with Vectornator (http://vectornator.io/) -->
<svg height="100%" stroke-miterlimit="10" style="fill-rule:nonzero;clip-rule:evenodd;stroke-linecap:round;stroke-linejoin:round;" version="1.1" viewBox="0 0 1152 800" width="100%" xml:space="preserve" xmlns="http://www.w3.org/2000/svg" xmlns:vectornator="http://vectornator.io" xmlns:xlink="http://www.w3.org/1999/xlink">
<defs/>
<clipPath id="ArtboardFrame">
<rect height="800" width="1152" x="0" y="0"/>
</clipPath>
<g clip-path="url(#ArtboardFrame)" id="Layer-1" vectornator:layerName="Layer 1">
<path d="M1072.89 295.541C1067.1 303.487 1063.98 311.834 1063.53 320.581C1047.21 321.861 1031.11 324.674 1015.25 329.021C999.353 333.367 984.086 339.141 969.446 346.341C963.953 349.034 959.686 351.781 956.646 354.581C952.513 358.341 950.18 362.447 949.646 366.901C934.66 365.141 916.406 365.994 894.886 369.461C890.46 370.181 881.353 371.834 867.566 374.421C856.233 376.527 847.113 378.047 840.206 378.981C836.073 379.541 828.726 380.394 818.166 381.541C808.833 382.554 801.486 383.474 796.126 384.301C779.273 386.914 765.38 391.114 754.446 396.901C749.86 399.301 746.22 402.074 743.526 405.221C740.22 409.034 738.766 412.994 739.166 417.101C739.486 420.594 741.166 423.901 744.206 427.021C746.5 429.394 749.686 431.741 753.766 434.061C770.06 443.421 787.74 449.821 806.806 453.261C818.86 455.341 834.406 456.474 853.446 456.661C865.172 456.871 877.678 456.951 890.966 456.901C890.927 457.085 890.887 457.272 890.846 457.461C889.3 464.581 890.366 471.781 894.046 479.061C897.486 485.941 902.5 491.501 909.086 495.741C920.1 502.781 934.58 505.941 952.526 505.221C961.246 504.874 965.62 504.701 965.646 504.701C970.633 504.701 974.94 505.234 978.566 506.301C981.34 507.101 984.5 508.527 988.046 510.581C990.073 511.727 993.1 513.514 997.126 515.941C1008.89 522.661 1021.5 526.767 1034.97 528.261C1039.45 528.767 1045.37 529.061 1052.73 529.141C1061.82 529.221 1067.75 529.341 1070.53 529.501C1075.73 529.794 1082.23 530.487 1090.05 531.581C1101.97 533.261 1108.46 534.167 1109.53 534.301C1120.03 535.581 1131.89 536.341 1145.09 536.581C1153.22 536.741 1165.1 536.687 1180.73 536.421C1211.45 535.967 1234.89 535.434 1251.05 534.821C1276.99 533.834 1300.34 532.221 1321.09 529.981C1331.78 528.834 1340.66 527.541 1347.73 526.101C1357.3 524.127 1365.83 521.514 1373.33 518.261C1376.9 516.687 1379.89 515.074 1382.29 513.421C1383.22 512.791 1384.08 512.137 1384.89 511.461C1394.2 511.82 1401.91 511.94 1408.01 511.821C1425.82 511.474 1441.62 509.461 1455.41 505.781C1460.9 504.314 1465.57 502.687 1469.41 500.901C1474.29 498.634 1478.34 495.914 1481.57 492.741C1484.02 490.394 1485.93 487.834 1487.29 485.061C1488.81 481.994 1489.51 478.941 1489.41 475.901C1489.27 469.901 1486.26 464.501 1480.37 459.701C1476.02 456.181 1469.95 452.887 1462.17 449.821C1485.87 445.314 1508.87 438.327 1531.17 428.861C1540.26 424.967 1547.45 420.794 1552.73 416.341C1559.71 410.447 1563.7 403.834 1564.69 396.501C1565.35 391.354 1564.45 386.154 1561.97 380.901C1559.7 376.021 1556.42 371.754 1552.13 368.101C1548.34 364.847 1543.78 361.994 1538.45 359.541C1534.31 357.647 1529.21 355.794 1523.13 353.981C1500.81 347.287 1475.11 343.007 1446.05 341.141C1428.31 340.021 1402.07 339.687 1367.33 340.141C1365.73 335.394 1362.75 331.221 1358.41 327.621C1354.46 324.341 1349.82 321.874 1344.49 320.221C1340.01 318.834 1334.83 317.954 1328.97 317.581C1325.66 317.367 1320.41 317.301 1313.21 317.381C1311.13 310.101 1307.34 303.327 1301.85 297.061C1296.73 291.274 1290.58 286.381 1283.41 282.381C1277.09 278.861 1269.85 275.914 1261.69 273.541C1255.18 271.674 1247.46 270.007 1238.53 268.541C1207.97 263.447 1177.17 262.087 1146.13 264.461C1135.54 265.314 1126.49 266.581 1118.97 268.261C1109.26 270.421 1100.77 273.527 1093.49 277.581C1085.11 282.194 1078.25 288.181 1072.89 295.541Z" fill="#d4f3ff" fill-opacity="0.639216" fill-rule="nonzero" opacity="1" stroke="none" vectornator:layerName="path"/>
</g>
</svg>
