<?xml version="1.0" encoding="UTF-8" standalone="no"?>
<!DOCTYPE svg PUBLIC "-//W3C//DTD SVG 1.1//EN" "http://www.w3.org/Graphics/SVG/1.1/DTD/svg11.dtd">
<!-- Created with Vectornator (http://vectornator.io/) -->
<svg height="100%" stroke-miterlimit="10" style="fill-rule:nonzero;clip-rule:evenodd;stroke-linecap:round;stroke-linejoin:round;" version="1.1" viewBox="0 0 1152 800" width="100%" xml:space="preserve" xmlns="http://www.w3.org/2000/svg" xmlns:vectornator="http://vectornator.io" xmlns:xlink="http://www.w3.org/1999/xlink">
<defs/>
<g id="Layer-1" vectornator:layerName="Layer 1">
<path d="M925.549 404.56C923.816 404.4 921.136 404.28 917.509 404.2C908.176 401.986 899.696 400.653 892.069 400.2C879.883 399.453 868.936 400.8 859.229 404.24C854.963 405.706 849.296 408.386 842.229 412.28C836.443 415.453 831.589 418.44 827.669 421.24C822.603 424.84 818.349 428.6 814.909 432.52C813.789 433.826 812.243 435.8 810.269 438.44C808.269 441.16 806.736 443.133 805.669 444.36C805.403 444.653 803.856 446.293 801.029 449.28C799.163 451.253 797.709 452.973 796.669 454.44C795.363 456.52 793.923 459.693 792.349 463.96C790.856 467.746 789.749 470.706 789.029 472.84C787.909 476.173 787.109 479.24 786.629 482.04C786.016 485.24 785.709 488.8 785.709 492.72C785.709 495.466 785.883 499.066 786.229 503.52C786.496 507.6 787.029 511.093 787.829 514C788.043 514.826 788.549 516.44 789.349 518.84C789.883 520.493 790.283 521.906 790.549 523.08C790.656 523.693 790.763 524.32 790.869 524.96C790.949 525.706 791.069 526.786 791.229 528.2C791.443 529.986 791.763 531.413 792.189 532.48C792.456 533.253 792.816 534.026 793.269 534.8C794.283 538.08 795.509 541.346 796.949 544.6C802.256 556.653 810.776 569.16 822.509 582.12C827.309 587.373 831.669 591.906 835.589 595.72C841.456 601.453 846.989 605.76 852.189 608.64C858.749 612.24 866.509 614.48 875.469 615.36C882.216 616.026 890.456 615.96 900.189 615.16C915.469 613.933 928.616 611.813 939.629 608.8C944.723 607.12 947.216 604.853 947.109 602L947.109 601.96C947.723 601.4 948.083 600.733 948.189 599.96C948.323 599.106 948.083 598.266 947.469 597.44C946.909 596.666 946.203 596.093 945.349 595.72C944.576 595.426 943.669 595.226 942.629 595.12C942.523 595.093 941.696 595.04 940.149 594.96C938.096 593.973 935.469 592.893 932.269 591.72C927.416 589.96 923.883 588.213 921.669 586.48C920.469 585.493 919.096 584.146 917.549 582.44C916.723 581.506 915.469 580.093 913.789 578.2C913.203 577.64 911.563 576.226 908.869 573.96C906.843 572.226 905.309 570.733 904.269 569.48C902.909 567.8 901.523 565.493 900.109 562.56C897.763 557.76 896.563 555.306 896.509 555.2C895.629 553.546 893.763 550.666 890.909 546.56C890.723 545.92 890.509 545.173 890.269 544.32C889.416 541.28 887.923 536.773 885.789 530.8C883.656 524.8 882.149 520.28 881.269 517.24C879.616 511.266 878.896 506.2 879.109 502.04C879.216 500.733 879.496 498.786 879.949 496.2C880.403 493.613 880.669 491.653 880.749 490.32C880.909 488.8 880.976 486.333 880.949 482.92C880.923 479.693 881.029 477.226 881.269 475.52C881.643 473.28 882.309 470.84 883.269 468.2C883.803 466.733 884.776 464.36 886.189 461.08C888.883 455.4 890.323 452.386 890.509 452.04C892.243 448.626 893.923 445.746 895.549 443.4C899.976 437.026 905.643 431.8 912.549 427.72C919.483 423.666 926.829 421.24 934.589 420.44C936.616 420.253 938.083 420.026 938.989 419.76C940.589 419.28 941.749 418.506 942.469 417.44C943.136 416.453 943.403 415.32 943.269 414.04C943.163 412.84 942.723 411.706 941.949 410.64C940.696 409.066 938.696 407.8 935.949 406.84C933.016 405.693 929.549 404.933 925.549 404.56Z" fill="#c5def2" fill-rule="nonzero" opacity="1" stroke="none" vectornator:layerName="path"/>
</g>
</svg>
