<svg width="74" height="75" viewBox="0 0 74 75" fill="none" xmlns="http://www.w3.org/2000/svg">
<path d="M73.9306 34.8131C72.802 16.345 57.9249 1.36531 39.4567 0.236699C17.7054 -1.20014 -0.249695 16.345 0.160707 37.8911C0.571178 57.3853 16.5768 73.4936 36.0709 74.0066C42.227 74.2116 48.0752 72.878 53.2052 70.313C55.1547 69.3895 57.4118 69.287 59.4638 69.8L71.3655 73.186C72.494 73.4939 73.52 72.4679 73.2124 71.339L69.6214 60.2582C68.9034 58.1036 69.1084 55.6411 70.1344 53.5891C72.9048 48.0486 74.3413 41.5848 73.9308 34.8132L73.9306 34.8131Z" fill="white" fill-opacity="0.5"/>
<circle cx="18.6154" cy="32.4621" r="4.61538" fill="white" fill-opacity="0.5"/>
<circle cx="30.923" cy="32.4621" r="4.61538" fill="white" fill-opacity="0.5"/>
<circle cx="43.2306" cy="32.4621" r="4.61538" fill="white" fill-opacity="0.5"/>
<path d="M63.9549 39.5282C63.2214 27.524 53.5512 17.7872 41.5469 17.0536C27.4085 16.1196 15.7377 27.524 16.0045 41.5289C16.2713 54.2001 26.6749 64.6705 39.3461 65.004C43.3476 65.1373 47.1489 64.2704 50.4834 62.6032C51.7506 62.0029 53.2177 61.9363 54.5515 62.2697L62.2876 64.4706C63.0211 64.6708 63.688 64.0039 63.4881 63.2701L61.1539 56.0675C60.6872 54.6671 60.8205 53.0664 61.4874 51.7326C63.2882 48.1313 64.2219 43.9299 63.9551 39.5283L63.9549 39.5282Z" fill="black"/>
<path d="M59.9549 35.5282C59.2214 23.524 49.5512 13.7872 37.5469 13.0536C23.4085 12.1196 11.7377 23.524 12.0045 37.5289C12.2713 50.2001 22.6749 60.6705 35.3461 61.004C39.3476 61.1373 43.1489 60.2704 46.4834 58.6032C47.7506 58.0029 49.2177 57.9363 50.5515 58.2697L58.2876 60.4706C59.0211 60.6708 59.688 60.0039 59.4881 59.2701L57.1539 52.0675C56.6872 50.6671 56.8205 49.0664 57.4874 47.7326C59.2882 44.1313 60.2219 39.9299 59.9551 35.5283L59.9549 35.5282Z" fill="#ECFFA2" stroke="black" stroke-width="2"/>
<circle cx="28" cy="38" r="3" fill="black"/>
<circle cx="36" cy="38" r="3" fill="black"/>
<circle cx="44" cy="38" r="3" fill="black"/>
</svg>
