<?xml version="1.0" encoding="UTF-8" standalone="no"?>
<!DOCTYPE svg PUBLIC "-//W3C//DTD SVG 1.1//EN" "http://www.w3.org/Graphics/SVG/1.1/DTD/svg11.dtd">
<!-- Created with Vectornator (http://vectornator.io/) -->
<svg height="100%" stroke-miterlimit="10" style="fill-rule:nonzero;clip-rule:evenodd;stroke-linecap:round;stroke-linejoin:round;" version="1.1" viewBox="0 0 1152 800" width="100%" xml:space="preserve" xmlns="http://www.w3.org/2000/svg" xmlns:vectornator="http://vectornator.io" xmlns:xlink="http://www.w3.org/1999/xlink">
<defs/>
<g id="Layer-1" vectornator:layerName="Layer 1">
<path d="M177.008 705.671C177.462 705.004 178.035 703.897 178.728 702.351C179.555 700.724 180.848 699.404 182.608 698.391C184.208 697.484 186.008 696.924 188.008 696.711C190.888 696.471 194.568 697.044 199.048 698.431C199.902 698.671 200.688 698.724 201.408 698.591C202.262 698.431 202.715 698.004 202.768 697.311C202.848 696.564 202.355 695.911 201.288 695.351C197.875 693.244 194.048 692.244 189.808 692.351C185.568 692.431 181.742 693.591 178.328 695.831C175.875 697.484 174.675 699.257 174.728 701.151C174.088 701.391 173.395 701.271 172.648 700.791C172.248 700.551 171.622 700.031 170.768 699.231C168.715 697.337 166.155 696.391 163.088 696.391C159.995 696.391 157.422 697.364 155.368 699.311C154.782 699.817 154.408 700.444 154.248 701.191C154.035 701.991 154.222 702.564 154.808 702.911C157.235 701.124 160.075 700.417 163.328 700.791C166.555 701.164 169.155 702.484 171.128 704.751C171.822 705.604 172.302 706.151 172.568 706.391C173.182 706.951 173.795 707.244 174.408 707.271C175.368 707.351 176.235 706.817 177.008 705.671M109.848 637.631C108.942 637.551 107.822 637.604 106.488 637.791C105.742 637.897 104.622 638.071 103.128 638.311C102.595 638.391 101.768 638.471 100.648 638.551C99.6885 638.684 98.8618 638.871 98.1685 639.111C97.2085 639.457 96.1285 640.111 94.9285 641.071C93.6485 642.191 92.6618 642.991 91.9685 643.471C90.6885 644.297 89.7151 644.911 89.0485 645.311C87.9018 646.057 86.9951 646.764 86.3285 647.431C85.5818 648.124 84.7151 649.324 83.7285 651.031L82.2485 653.551C81.2085 655.311 80.2618 656.551 79.4085 657.271C79.5951 657.831 79.7285 658.191 79.8085 658.351C81.3285 657.844 82.6351 657.124 83.7285 656.191C84.4218 655.657 85.1951 654.897 86.0485 653.911L88.1685 651.511C90.2218 649.324 92.7151 647.484 95.6485 645.991C97.9151 644.817 100.275 643.951 102.728 643.391C104.915 642.884 106.702 642.684 108.088 642.791C110.035 642.924 111.875 643.484 113.608 644.471C115.368 645.431 116.795 646.711 117.888 648.311C118.395 649.111 118.768 649.697 119.008 650.071C119.462 650.791 119.875 651.337 120.248 651.711C120.755 652.244 121.342 652.631 122.008 652.871C122.728 653.137 123.395 653.151 124.008 652.911C124.728 652.671 125.368 652.057 125.928 651.071C126.248 650.537 126.715 649.697 127.328 648.551C128.235 647.351 129.635 646.497 131.528 645.991C132.782 645.671 134.515 645.471 136.728 645.391C138.488 645.391 139.542 645.404 139.888 645.431C141.115 645.457 142.168 645.577 143.048 645.791C144.488 646.111 146.248 646.857 148.328 648.031C150.435 649.204 152.662 650.671 155.008 652.431C156.662 653.711 157.755 654.511 158.288 654.831C159.568 655.577 160.782 655.937 161.928 655.911C162.702 655.911 163.395 655.684 164.008 655.231C164.648 654.751 164.942 654.164 164.888 653.471C164.728 652.564 163.728 651.764 161.888 651.071C160.048 650.377 157.608 648.897 154.568 646.631C151.475 644.284 149.062 642.751 147.328 642.031C145.648 641.364 143.702 640.911 141.488 640.671C139.942 640.484 137.915 640.377 135.408 640.351C132.342 640.244 130.062 640.537 128.568 641.231C127.102 641.871 125.622 643.097 124.128 644.911C123.542 645.684 123.048 646.071 122.648 646.071C122.195 646.071 121.742 645.791 121.288 645.231C118.915 642.831 117.182 641.204 116.088 640.351C113.955 638.751 111.875 637.844 109.848 637.631M148.128 593.071C147.355 592.377 146.235 591.257 144.768 589.711C143.408 588.377 142.155 587.417 141.008 586.831C139.488 586.084 137.808 585.751 135.968 585.831C134.182 585.911 132.488 586.351 130.888 587.151C128.195 588.431 125.608 590.751 123.128 594.111C121.902 593.417 120.368 591.751 118.528 589.111C116.822 586.631 115.222 585.071 113.728 584.431C111.888 583.684 109.862 583.804 107.648 584.791C105.782 585.591 104.022 586.884 102.368 588.671C100.582 590.564 99.3818 592.311 98.7685 593.911C98.5285 594.497 98.4885 594.991 98.6485 595.391C98.7818 595.791 99.0751 596.044 99.5285 596.151C99.9551 596.257 100.355 596.204 100.728 595.991C101.342 595.724 101.915 595.137 102.448 594.231C105.675 589.457 108.822 587.417 111.888 588.111C112.982 588.351 114.022 588.951 115.008 589.911C115.702 590.551 116.502 591.511 117.408 592.791L123.248 600.911C124.075 600.831 124.888 600.711 125.688 600.551C125.768 597.857 126.942 595.564 129.208 593.671C131.502 591.751 133.982 591.004 136.648 591.431C138.355 591.724 140.088 592.484 141.848 593.711C143.075 594.564 144.555 595.844 146.288 597.551C147.622 598.937 148.755 599.417 149.688 598.991C150.248 598.777 150.608 598.324 150.768 597.631C150.902 596.991 150.848 596.377 150.608 595.791C150.368 595.337 149.995 594.857 149.488 594.351C149.195 594.057 148.742 593.631 148.128 593.071M144.368 528.711C145.435 528.577 146.302 528.204 146.968 527.591C144.035 525.271 141.235 523.284 138.568 521.631C134.435 519.124 130.822 517.644 127.728 517.191C125.168 516.817 122.608 517.057 120.048 517.911C117.488 518.764 115.288 520.111 113.448 521.951C111.582 519.897 109.502 518.311 107.208 517.191C104.675 515.964 102.155 515.471 99.6485 515.711C97.3551 515.951 94.5818 516.977 91.3285 518.791C87.0085 521.191 84.3018 522.591 83.2085 522.991C84.0085 523.871 85.1285 524.391 86.5685 524.551C87.8485 524.711 89.1285 524.551 90.4085 524.071C91.1551 523.804 92.3418 523.257 93.9685 522.431C95.4618 521.657 96.6351 521.137 97.4885 520.871C100.075 520.017 102.728 520.124 105.448 521.191C108.142 522.284 110.155 524.017 111.488 526.391C112.048 527.351 112.475 527.991 112.768 528.311C113.328 528.924 113.928 529.191 114.568 529.111C115.128 529.004 115.608 528.631 116.008 527.991C116.115 527.804 116.422 527.177 116.928 526.111C117.675 524.484 118.955 523.231 120.768 522.351C122.448 521.524 124.248 521.164 126.168 521.271C129.235 521.431 132.622 522.791 136.328 525.351C137.395 526.124 138.208 526.684 138.768 527.031C139.728 527.671 140.608 528.111 141.408 528.351C142.368 528.697 143.355 528.817 144.368 528.711M213.048 540.831C214.782 539.977 216.595 539.617 218.488 539.751C220.275 539.937 222.008 540.511 223.688 541.471C225.288 542.404 226.702 543.604 227.928 545.071C228.488 545.764 228.915 546.284 229.208 546.631C229.715 547.191 230.195 547.617 230.648 547.911C231.235 548.311 231.848 548.551 232.488 548.631C233.208 548.684 233.822 548.524 234.328 548.151C235.235 547.484 235.488 546.457 235.088 545.071C234.742 543.871 234.062 542.777 233.048 541.791C230.462 539.231 227.755 537.284 224.928 535.951C221.648 534.404 218.462 533.791 215.368 534.111C212.808 534.431 210.448 535.337 208.288 536.831C206.102 538.351 204.448 540.231 203.328 542.471C202.955 542.204 201.168 540.617 197.968 537.711C195.862 535.764 193.902 534.657 192.088 534.391C189.208 534.017 186.035 535.377 182.568 538.471C180.168 540.657 177.328 543.791 174.048 547.871C172.928 549.231 172.182 550.551 171.808 551.831C171.355 553.431 171.608 554.671 172.568 555.551L181.728 545.631C185.915 541.097 189.595 539.364 192.768 540.431C193.888 540.831 195.008 541.697 196.128 543.031C197.355 544.631 198.275 545.804 198.888 546.551C199.955 547.831 201.195 548.737 202.608 549.271C204.208 549.857 205.555 549.711 206.648 548.831C207.182 548.404 207.662 547.751 208.088 546.871C208.328 546.364 208.662 545.577 209.088 544.511C209.915 542.937 211.235 541.711 213.048 540.831Z" fill="#265377" fill-rule="nonzero" opacity="1" stroke="none" vectornator:layerName="path"/>
</g>
</svg>
