<?xml version="1.0" encoding="UTF-8" standalone="no"?>
<!DOCTYPE svg PUBLIC "-//W3C//DTD SVG 1.1//EN" "http://www.w3.org/Graphics/SVG/1.1/DTD/svg11.dtd">
<!-- Created with Vectornator (http://vectornator.io/) -->
<svg height="100%" stroke-miterlimit="10" style="fill-rule:nonzero;clip-rule:evenodd;stroke-linecap:round;stroke-linejoin:round;" version="1.1" viewBox="0 0 1152 1418.53" width="100%" xml:space="preserve" xmlns="http://www.w3.org/2000/svg" xmlns:vectornator="http://vectornator.io" xmlns:xlink="http://www.w3.org/1999/xlink">
<defs/>
<g id="Layer-1" vectornator:layerName="Layer 1">
<path d="M120.184 1280C119.682 1279.08 119.253 1278.47 118.897 1278.18C118.102 1277.76 117.286 1277.66 116.448 1277.87C115.59 1278.1 114.586 1278.85 113.435 1280.13C112.326 1281.07 111.687 1281.99 111.52 1282.89C111.436 1283.87 111.865 1284.76 112.807 1285.56C113.163 1285.91 113.487 1286.12 113.78 1286.18C113.906 1286.27 114.073 1286.34 114.282 1286.4C114.513 1286.45 114.701 1286.49 114.848 1286.53C116.04 1286.78 117.034 1286.81 117.83 1286.62C118.395 1286.48 119.106 1285.98 119.964 1285.12C120.446 1284.3 120.728 1283.77 120.812 1283.52C120.958 1283.01 120.948 1282.42 120.781 1281.73C120.697 1281.37 120.498 1280.8 120.184 1280M383.999 1412.03C383.581 1412.03 383.267 1412.06 383.057 1412.13L382.304 1412.13C382.137 1412.19 381.885 1412.37 381.551 1412.66C380.546 1413.67 380.086 1414.63 380.169 1415.55C380.253 1416.37 380.787 1417.18 381.77 1418C381.854 1418.17 382.032 1418.31 382.304 1418.44C382.45 1418.5 382.66 1418.53 382.932 1418.53L384.219 1418.53C384.512 1418.53 384.69 1418.5 384.752 1418.44C385.045 1418.31 385.223 1418.17 385.286 1418C385.872 1417.56 386.27 1417.14 386.479 1416.74C387.044 1415.82 387.075 1414.89 386.573 1413.95C386.364 1413.59 386.008 1413.16 385.506 1412.66L384.878 1412.13C384.648 1412.06 384.355 1412.03 383.999 1412.03M386.259 1063.02L385.192 1063.02C384.836 1063.02 384.585 1063.05 384.439 1063.12C384.083 1063.26 383.832 1063.51 383.685 1063.87C383.267 1064.56 382.984 1065.33 382.838 1066.19C382.691 1067.05 382.723 1067.88 382.932 1068.67C383.12 1069.01 383.267 1069.23 383.371 1069.33L383.811 1069.65L385.412 1070.27C385.621 1070.36 385.799 1070.4 385.945 1070.4C386.029 1070.4 386.238 1070.33 386.573 1070.18L387.201 1069.86C387.515 1069.68 387.693 1069.56 387.735 1069.52C387.923 1069.39 388.08 1069.2 388.206 1068.92C388.268 1068.78 388.363 1068.56 388.488 1068.26C388.718 1067.57 388.854 1067.09 388.896 1066.82C389.022 1066.28 389.032 1065.79 388.928 1065.38C388.823 1065.04 388.635 1064.71 388.363 1064.37C388.279 1064.29 388.007 1064.02 387.546 1063.56L387.013 1063.12C386.782 1063.05 386.531 1063.02 386.259 1063.02M338.23 1039.6C338 1039.58 337.822 1039.59 337.696 1039.63C337.383 1039.63 337.1 1039.78 336.849 1040.07L335.248 1041.36C334.641 1041.84 334.191 1042.25 333.898 1042.59C333.5 1043.09 333.302 1043.6 333.302 1044.12C333.218 1045.02 333.689 1045.99 334.714 1047.01C334.798 1047.12 335.007 1047.26 335.342 1047.45L335.97 1047.45C337.833 1047.3 339.256 1046.98 340.239 1046.48C340.616 1046.25 340.867 1046.04 340.993 1045.85C341.307 1045.52 341.526 1045.12 341.652 1044.66C342.091 1043.49 342.227 1042.6 342.06 1041.99C341.955 1041.65 341.767 1041.32 341.495 1040.98C341.411 1040.9 341.139 1040.63 340.679 1040.17L340.051 1039.63C339.883 1039.59 339.674 1039.58 339.423 1039.6C339.277 1039.6 339.088 1039.61 338.858 1039.63L338.23 1039.6M289.165 985.484C288.977 985.422 288.788 985.369 288.6 985.327C288.077 985.244 287.543 985.254 286.999 985.359C286.371 985.317 285.942 985.265 285.712 985.202L285.712 985.735C285.628 985.756 285.545 985.788 285.461 985.83C284.854 985.746 284.195 986.007 283.483 986.614C283.295 986.824 283.127 987.054 282.981 987.305C282.165 988.058 281.568 988.979 281.192 990.067C280.752 991.281 280.689 992.474 281.003 993.646C281.233 994.588 281.673 995.425 282.322 996.157C283.012 996.932 283.818 997.444 284.739 997.696C285.66 997.926 286.58 997.842 287.501 997.444C287.857 997.298 288.181 997.12 288.474 996.911C288.537 996.911 288.6 996.911 288.663 996.911C289.772 996.995 290.714 996.796 291.488 996.314C292.493 995.728 293.131 994.734 293.403 993.332C293.57 992.411 293.529 991.198 293.277 989.691C293.026 987.996 292.493 986.855 291.676 986.269C291.111 985.83 290.274 985.568 289.165 985.484M350.818 702.803C350.693 701.024 350.19 699.779 349.311 699.067C348.83 698.691 348.213 698.419 347.459 698.251C346.978 698.146 346.287 698.063 345.387 698L345.387 698.534C344.55 698.324 343.724 698.68 342.907 699.601C342.656 699.915 342.405 700.313 342.154 700.794C341.882 701.359 341.673 701.777 341.526 702.05C340.898 703.201 340.469 704.09 340.239 704.718C339.925 705.89 339.999 707.062 340.459 708.234C341.045 709.51 341.798 710.19 342.719 710.274C343.305 710.4 344.006 710.222 344.822 709.74C346.099 708.987 346.779 708.6 346.863 708.579C347.574 708.349 348.108 708.171 348.464 708.045C349.322 707.627 349.95 706.894 350.347 705.848C350.724 704.948 350.881 703.933 350.818 702.803M564.815 922.576C564.522 922.241 564.197 921.99 563.842 921.822C563.632 921.738 563.277 921.697 562.774 921.697C562.146 921.697 561.655 921.77 561.299 921.916C560.734 922.105 560.252 922.534 559.855 923.203C559.604 923.601 559.332 924.239 559.039 925.118C558.829 925.704 558.725 926.238 558.725 926.719C558.725 926.991 558.808 927.316 558.976 927.692C559.185 928.111 559.321 928.425 559.384 928.634C559.426 928.927 559.468 929.136 559.51 929.262C559.572 929.471 559.666 929.618 559.792 929.701C559.855 929.764 560.033 929.879 560.326 930.047C561.037 930.256 561.54 930.392 561.833 930.455C562.209 930.601 562.523 930.675 562.774 930.675C563.046 930.737 563.402 930.706 563.842 930.58C564.616 930.308 565.108 930.12 565.317 930.015C565.84 929.785 566.238 929.503 566.51 929.168C567.054 928.54 567.274 927.766 567.169 926.845C567.064 926.133 566.782 925.348 566.322 924.49C566.029 924.051 565.526 923.413 564.815 922.576Z" fill="#c5def2" fill-rule="nonzero" opacity="1" stroke="none" vectornator:layerName="path"/>
<path d="M944.44 716.964C943.567 716.712 942.669 716.628 941.745 716.712L941.745 717.14C941.057 717.056 940.352 717.233 939.63 717.669C939.109 717.988 938.505 718.492 937.817 719.18C937.212 719.784 936.835 720.389 936.683 720.993C936.616 721.48 936.734 722.076 937.036 722.781C937.137 723.067 937.212 723.276 937.263 723.411C937.363 723.646 937.489 723.839 937.64 723.99C937.792 724.091 938.077 724.2 938.497 724.317C940.192 724.787 941.821 724.905 943.382 724.67C943.852 724.67 944.331 724.527 944.817 724.242C945.237 724.057 945.64 723.721 946.026 723.234C946.228 722.983 946.538 722.521 946.958 721.849C947.243 721.279 947.42 720.901 947.487 720.716C947.655 720.263 947.68 719.868 947.562 719.533C947.512 719.13 947.26 718.702 946.807 718.248C946.135 717.661 945.346 717.233 944.44 716.964M748.495 495.635C747.924 495.467 747.336 495.501 746.732 495.736C746.144 495.971 745.649 496.332 745.246 496.819C744.877 497.188 744.533 497.683 744.214 498.304C743.878 499.06 743.626 499.622 743.458 499.992C743.324 500.344 743.232 500.604 743.181 500.772C743.08 501.091 743.03 501.377 743.03 501.628C743.03 502.317 743.425 503.173 744.214 504.197C744.482 504.499 744.692 504.718 744.843 504.852C745.095 505.087 745.347 505.238 745.599 505.305C745.884 505.423 746.312 505.481 746.883 505.481L749.175 505.23C749.897 505.112 750.442 504.911 750.811 504.625C751.198 504.357 751.483 503.987 751.668 503.517C752.155 502.611 752.457 501.696 752.574 500.772C752.675 499.765 752.541 498.85 752.171 498.027C751.836 497.289 751.332 496.668 750.66 496.164C749.989 495.66 749.267 495.366 748.495 495.282L748.495 495.635M1108.78 690.245C1108.26 690.363 1107.72 690.632 1107.17 691.051C1106.83 691.303 1106.37 691.723 1105.78 692.31C1105.23 692.864 1104.89 693.376 1104.78 693.846C1104.63 694.4 1104.71 695.055 1105.03 695.811C1105.16 696.197 1105.39 696.709 1105.71 697.347C1105.89 697.716 1106.09 697.976 1106.31 698.127C1106.55 698.295 1106.83 698.379 1107.17 698.379C1108.71 698.732 1109.86 698.648 1110.59 698.127C1111.1 697.741 1111.47 696.969 1111.7 695.811C1112.14 694.149 1112.05 692.722 1111.45 691.53C1111.16 690.858 1110.68 690.43 1109.99 690.245C1109.79 690.145 1109.39 690.145 1108.78 690.245M888.232 381.835C887.796 381.835 887.343 381.919 886.873 382.087C886.184 382.473 885.664 383.246 885.311 384.404C885.177 385.21 885.21 386.125 885.412 387.149C885.647 388.223 885.874 388.962 886.092 389.365C886.579 390.171 887.15 390.658 887.804 390.826C888.476 391.077 889.164 390.993 889.869 390.574C890.205 390.355 890.499 390.028 890.751 389.592C890.919 389.323 891.103 388.912 891.305 388.358C891.59 387.552 891.775 386.947 891.859 386.544C892.01 385.873 892.027 385.277 891.909 384.757C891.741 383.884 891.229 383.111 890.373 382.44C889.701 381.97 888.988 381.768 888.232 381.835M864.687 168.565C864.082 168.212 863.394 168.036 862.622 168.036C861.782 168.036 861.102 168.296 860.582 168.817C859.894 169.438 859.55 170.521 859.55 172.065C859.55 172.653 859.633 173.198 859.801 173.702C860.003 174.407 860.464 174.97 861.186 175.389C861.858 175.775 862.571 175.926 863.327 175.843C863.965 175.725 864.527 175.44 865.014 174.986C865.484 174.567 865.828 174.055 866.047 173.45C866.416 172.443 866.416 171.444 866.047 170.453C865.795 169.648 865.341 169.018 864.687 168.565M712.534 65.2914C712.635 64.7542 712.576 64.133 712.358 63.4279C712.056 62.0848 711.401 61.1699 710.394 60.683C709.722 60.2969 708.983 60.1877 708.178 60.3556C707.388 60.5403 706.759 60.9348 706.289 61.5392C706.054 61.7742 705.886 62.1184 705.785 62.5717C705.752 62.8403 705.785 63.1677 705.886 63.5538C706.02 64.0742 706.096 64.368 706.113 64.4352C706.146 64.5527 706.163 64.7458 706.163 65.0144C706.163 65.2662 706.18 65.4509 706.213 65.5684C706.432 66.391 707.195 67.0122 708.505 67.4319C708.79 67.4991 709.025 67.5326 709.21 67.5326C709.495 67.4655 709.722 67.4319 709.89 67.4319C710.091 67.3144 710.402 67.2053 710.822 67.1045C710.939 67.0374 711.141 66.9534 711.426 66.8527C711.98 66.5337 712.349 66.0133 712.534 65.2914Z" fill="#c5def2" fill-rule="nonzero" opacity="1" stroke="none" vectornator:layerName="path 1"/>
</g>
</svg>
