<?xml version="1.0" encoding="UTF-8" standalone="no"?>
<!DOCTYPE svg PUBLIC "-//W3C//DTD SVG 1.1//EN" "http://www.w3.org/Graphics/SVG/1.1/DTD/svg11.dtd">
<!-- Created with Vectornator (http://vectornator.io/) -->
<svg height="100%" stroke-miterlimit="10" style="fill-rule:nonzero;clip-rule:evenodd;stroke-linecap:round;stroke-linejoin:round;" version="1.1" viewBox="0 0 1152 800" width="100%" xml:space="preserve" xmlns="http://www.w3.org/2000/svg" xmlns:vectornator="http://vectornator.io" xmlns:xlink="http://www.w3.org/1999/xlink">
<defs/>
<g id="Layer-1" vectornator:layerName="Layer 1">
<g opacity="1" vectornator:layerName="g_UFO_0_Layer0_0_FILL">
<path d="M163.346 399.446C165.283 399.716 166.976 399.901 168.425 400C174.569 394.406 181.608 388.014 189.54 380.824C175.228 376.093 159.428 373.497 142.139 373.037C139.698 370.842 136.907 369.775 133.767 369.836C132.372 369.877 130.977 370.247 129.581 370.944L35.5194 370.944C32.5031 367.558 27.6194 365.876 20.8684 365.896C15.5697 366.183 10.2757 366.399 4.98627 366.543C6.49534 368.578 8.00353 370.907 9.51084 373.53C10.6394 375.479 11.9937 378.023 13.5737 381.163C14.1916 382.383 15.0329 384.056 16.0976 386.18C17.3682 386.523 18.9379 386.8 20.8069 387.011C26.4908 387.627 33.0879 388.253 40.5981 388.889C41.8703 388.991 48.4981 389.514 60.4816 390.458C67.0684 390.869 71.952 391.218 75.1326 391.505C94.8314 392.9 109.564 394.019 119.332 394.86C135.706 396.255 150.378 397.784 163.346 399.446Z" fill="#65829a" fill-rule="nonzero" opacity="1" stroke="none" vectornator:layerName="path"/>
<path d="M186.369 369.405C177.095 362.47 167.204 356.827 156.698 352.477C153.825 351.286 150.942 350.209 148.049 349.245C147.495 349.532 146.92 349.799 146.325 350.045C141.442 350.066 136.579 350.312 131.736 350.784C105.184 353.102 84.9615 349.378 71.0697 339.611L69.7769 337.672C69.4691 339.231 69.4691 340.709 69.7769 342.104C69.9616 342.884 70.2284 343.53 70.5772 344.043C48.9085 346.033 27.5373 350.199 6.46368 356.539C4.51431 357.176 3.07794 357.76 2.15456 358.294C1.26444 358.806 0.546255 359.381 0 360.018C0.50241 360.773 1.08722 361.573 1.75443 362.418C2.43157 363.28 3.43704 364.563 4.77081 366.266C4.84351 366.362 4.91533 366.454 4.98627 366.543C10.2757 366.399 15.5697 366.183 20.8684 365.896C27.6194 365.876 32.5031 367.558 35.5194 370.944L129.581 370.944C130.977 370.247 132.372 369.877 133.767 369.836C136.907 369.775 139.698 370.842 142.139 373.037C159.428 373.497 175.228 376.093 189.54 380.824C190.844 379.649 192.168 378.449 193.51 377.223C193.334 376.881 193.139 376.532 192.925 376.177C192.823 376.033 192.73 375.889 192.648 375.746C191.253 373.632 189.16 371.519 186.369 369.405Z" fill="#798fa1" fill-rule="nonzero" opacity="1" stroke="none" vectornator:layerName="path"/>
<path d="M146.325 350.045C146.92 349.799 147.495 349.532 148.049 349.245C145.135 348.28 142.211 347.429 139.277 346.69C139.564 345.91 139.769 345.048 139.892 344.105C140.898 337.764 139.79 331.567 136.568 325.514C133.347 319.461 128.802 315.049 122.933 312.279C118.521 310.186 113.689 309.18 108.436 309.262C103.347 309.324 98.4839 310.401 93.8464 312.494C89.4142 314.526 85.3103 317.337 81.5347 320.928C77.9643 324.334 74.8453 328.253 72.1777 332.685C72.0341 332.952 71.8905 333.219 71.7468 333.486C71.3364 333.711 70.9568 334.173 70.608 334.871C70.2181 335.835 69.9411 336.769 69.7769 337.672L71.0697 339.611C84.9615 349.378 105.184 353.102 131.736 350.784C136.579 350.312 141.442 350.066 146.325 350.045Z" fill="#9dabb6" fill-rule="nonzero" opacity="1" stroke="none" vectornator:layerName="path"/>
</g>
</g>
</svg>
