<svg width="26" height="26" viewBox="0 0 26 26" fill="none" xmlns="http://www.w3.org/2000/svg">
<path fill-rule="evenodd" clip-rule="evenodd" d="M19.5001 0.8125C20.8463 0.8125 21.9376 1.90378 21.9376 3.25V10.9688H17.0626C15.9407 10.9688 15.0313 11.8782 15.0313 13V16.6562H14.6251C13.8319 16.6562 13.1111 17.118 12.7797 17.8387C12.4482 18.5595 12.5666 19.4072 13.0828 20.0095L14.7355 21.9375H3.25C1.90378 21.9375 0.8125 20.8463 0.8125 19.5V3.25004C0.8125 1.90383 1.90378 0.812543 3.25 0.812543L19.5001 0.8125ZM20.3126 3.25C20.3126 2.80126 19.9488 2.4375 19.5001 2.4375H15.4376L16.6563 4.0625H20.3126V3.25ZM13.4063 2.4375H9.60966L10.41 3.68799C10.5593 3.92134 10.8173 4.0625 11.0944 4.0625H14.6249L13.4063 2.4375Z" fill="black"/>
<path d="M25.1137 18.348C24.9811 18.0598 24.6928 17.875 24.3755 17.875H22.7505V13C22.7505 12.5513 22.3867 12.1875 21.938 12.1875H17.063C16.6143 12.1875 16.2505 12.5513 16.2505 13V17.875H14.6255C14.3082 17.875 14.0199 18.0598 13.8873 18.348C13.7548 18.6363 13.8021 18.9753 14.0086 19.2163L18.8836 24.9038C19.038 25.0839 19.2633 25.1875 19.5005 25.1875C19.7377 25.1875 19.9631 25.0839 20.1174 24.9038L24.9924 19.2163C25.1989 18.9753 25.2463 18.6363 25.1137 18.348H25.1137Z" fill="black"/>
</svg>
